<?xml version="1.0" encoding="UTF-8" standalone="no"?>
<svg
   xmlns:dc="http://purl.org/dc/elements/1.1/"
   xmlns:cc="http://creativecommons.org/ns#"
   xmlns:rdf="http://www.w3.org/1999/02/22-rdf-syntax-ns#"
   xmlns:svg="http://www.w3.org/2000/svg"
   xmlns="http://www.w3.org/2000/svg"
   xmlns:sodipodi="http://sodipodi.sourceforge.net/DTD/sodipodi-0.dtd"
   xmlns:inkscape="http://www.inkscape.org/namespaces/inkscape"
   width="200mm"
   height="200mm"
   viewBox="0 0 200 200"
   version="1.1"
   id="svg3587"
   inkscape:version="1.0.2 (e86c870879, 2021-01-15, custom)"
   sodipodi:docname="icone Ilmank.svg">
  <defs
     id="defs3581" />
  <sodipodi:namedview
     id="base"
     pagecolor="#ffffff"
     bordercolor="#666666"
     borderopacity="1.0"
     inkscape:pageopacity="0.0"
     inkscape:pageshadow="2"
     inkscape:zoom="0.70710678"
     inkscape:cx="493.42348"
     inkscape:cy="165.08727"
     inkscape:document-units="mm"
     inkscape:current-layer="layer1"
     inkscape:document-rotation="0"
     showgrid="false"
     inkscape:window-width="1800"
     inkscape:window-height="1033"
     inkscape:window-x="102"
     inkscape:window-y="0"
     inkscape:window-maximized="0" />
  <metadata
     id="metadata3584">
    <rdf:RDF>
      <cc:Work
         rdf:about="">
        <dc:format>image/svg+xml</dc:format>
        <dc:type
           rdf:resource="http://purl.org/dc/dcmitype/StillImage" />
        <dc:title></dc:title>
      </cc:Work>
    </rdf:RDF>
  </metadata>
  <g
     inkscape:label="Livello 1"
     inkscape:groupmode="layer"
     id="layer1">
    <path
       style="fill:#a02c2c;stroke-width:0.00714285;stroke-linecap:round;paint-order:fill markers stroke"
       d="M 118.51953,144.00374 85.823392,98.319703 87.35144,98.027571 c 1.358964,-0.259805 1.60115,-0.371901 2.188702,-1.013031 l 0.660654,-0.7209 34.718034,41.4425 c 19.09492,22.79338 34.71803,41.507 34.71803,41.58582 0,0.10295 -6.99876,8.72571 -8.30159,10.22791 -0.0658,0.0759 -14.83287,-20.41991 -32.81574,-45.54613 z"
       id="path4170" />
    <path
       style="fill:#c83737;stroke-width:0.00714285;stroke-linecap:round;paint-order:fill markers stroke"
       d="M 157.81859,177.29199 C 155.8283,174.85515 132.7742,147.28551 108.67092,118.51792 98.504639,106.38432 90.18874,96.391577 90.191135,96.311813 c 0.0024,-0.07976 0.661493,-0.850426 1.464659,-1.712581 l 1.460299,-1.567556 32.967387,35.952174 32.96738,35.95217 0.13444,1.05065 c 0.15983,1.24904 0.43559,13.24039 0.30449,13.24039 -0.0499,0 -0.80194,-0.87079 -1.6712,-1.93507 z"
       id="path4172" />
    <path
       style="fill:#c83737;stroke-width:0.00714285;stroke-linecap:round;paint-order:fill markers stroke"
       d="m 104.56127,145.22229 -28.873033,-45.20277 5.056571,-0.89935 c 2.781115,-0.494646 5.109324,-0.838039 5.1738,-0.763098 0.06447,0.07494 8.48037,11.829888 18.701992,26.122118 21.37339,29.88502 31.91765,44.58402 40.58325,56.57422 3.36949,4.66222 6.25515,8.44562 6.16715,8.52304 -0.14355,0.12629 -15.00127,0.88437 -17.08625,0.85897 l -0.85044,-0.0103 -28.87304,-45.20277 z"
       id="path4174"
       sodipodi:nodetypes="ccssssscccc" />
    <path
       style="fill:#ffcc00;stroke:none;stroke-width:0.264583px;stroke-linecap:butt;stroke-linejoin:miter;stroke-opacity:1"
       d="m 106.8639,117.40997 -0.96826,0.81206 2.58388,2.78995 -2.84737,2.51003 -2.18592,-3.04011 -0.70158,0.54546 5.26182,7.2249 1.03805,-1.1033 -2.21057,-2.84321 2.63404,-2.40341 1.75925,3.25335 1.31296,-1.43553 z"
       id="path4200" />
    <path
       style="fill:#ffcc00;stroke:none;stroke-width:0.264583px;stroke-linecap:butt;stroke-linejoin:miter;stroke-opacity:1"
       d="m 114.17868,125.67515 -4.93987,4.58126 4.18727,5.95713 1.60846,-2.19849 -4.47276,-3.80968 4.15211,-3.87993 z"
       id="path4204" />
    <path
       style="fill:#ffcc00;stroke:none;stroke-width:0.264583px;stroke-linecap:butt;stroke-linejoin:miter;stroke-opacity:1"
       d="m 120.98994,134.59085 -6.67885,2.76367 1.58922,2.08215 4.62363,-2.58765 -2.58116,4.90986 0.6603,0.84927 4.67284,-2.44817 -2.9216,4.70059 1.98911,2.48218 2.89357,-8.4705 -1.14854,-0.41043 -2.92509,1.26706 1.25602,-4.17581 z"
       id="path4206"
       sodipodi:nodetypes="cccccccccccccc" />
    <path
       style="fill:#ffcc00;stroke:none;stroke-width:0.264583px;stroke-linecap:butt;stroke-linejoin:miter;stroke-opacity:1"
       d="m 133.67425,148.99755 -1.52978,-1.89139 -2.32173,-0.62395 -6.13736,2.69814 1.52302,2.12397 2.75611,-2.53271 3.08363,4.16357 -3.42966,1.30388 1.91919,2.33837 4.55464,-5.29339 z"
       id="path4210"
       sodipodi:nodetypes="ccccccccccc" />
    <path
       style="fill:#a02c2c;fill-opacity:1;stroke:none;stroke-width:0.264583px;stroke-linecap:butt;stroke-linejoin:miter;stroke-opacity:1"
       d="m 132.86705,149.52146 -1.07759,-1.44314 -2.78863,0.16196 2.97972,4.10748 0.88341,-2.73503 z"
       id="path4212"
       sodipodi:nodetypes="cccccc" />
    <path
       style="fill:#cccccc;fill-opacity:1;stroke:none;stroke-width:0.0161682;stroke-linecap:round;paint-order:fill markers stroke"
       d="M 49.339002,103.23633 C 48.865751,102.9325 40.902788,98.472591 31.643525,93.325421 L 14.808504,83.96692 14.142987,81.120623 C 13.776953,79.555159 12.22458,72.274286 10.693271,64.940906 L 7.9090703,51.607489 8.9766082,49.085479 C 9.5637539,47.698371 12.33395,41.460662 15.132596,35.2239 l 5.088451,-11.339567 14.791718,-6.868468 c 8.135444,-3.777658 15.176706,-6.872086 15.647247,-6.876505 0.470543,-0.0045 5.385302,0.649026 10.921686,1.452103 l 10.066154,1.460137 13.408696,5.514767 13.408694,5.514765 7.733098,9.922584 7.73309,9.922586 0.32261,5.393127 c 0.17743,2.966223 0.35569,9.071205 0.39615,13.566627 l 0.0736,8.173499 -11.27692,12.031589 c -6.202312,6.617375 -11.604612,12.380529 -12.005117,12.807018 -0.571831,0.608929 -5.077608,1.542511 -20.985083,4.348058 -11.141298,1.96494 -20.256965,3.56585 -20.257037,3.55758 -7.4e-5,-0.008 -0.387339,-0.26363 -0.860588,-0.56747 z"
       id="path4214" />
    <path
       style="fill:#e6e6e6;stroke:none;stroke-width:0.264583px;stroke-linecap:butt;stroke-linejoin:miter;stroke-opacity:1"
       d="m 42.590899,29.127955 -5.364469,6.79427 21.386252,-5.215186 13.81592,6.493443 1.943616,-4.647464 -14.760522,-8.601893 z"
       id="path4216" />
    <path
       style="fill:#e6e6e6;stroke:none;stroke-width:0.264583px;stroke-linecap:butt;stroke-linejoin:miter;stroke-opacity:1"
       d="m 78.485888,33.97214 7.044894,3.774704 2.319774,8.049721 -12.36309,-6.770804 z"
       id="path4218" />
    <path
       style="fill:#e6e6e6;stroke:none;stroke-width:0.264583px;stroke-linecap:butt;stroke-linejoin:miter;stroke-opacity:1"
       d="m 34.685089,32.769434 -0.480328,5.560684 -2.977501,7.434781 -3.872341,-4.067177 z"
       id="path4220" />
    <path
       style="fill:#ffcc00;stroke:none;stroke-width:0.264583px;stroke-linecap:butt;stroke-linejoin:miter;stroke-opacity:1"
       d="m 138.64663,156.31848 -6.88011,2.59134 1.27632,1.92205 5.11211,-2.54723 -2.1344,6.52393 1.73047,2.17436 6.47232,-5.14897 -1.60599,-1.92223 -4.4226,4.98884 1.46247,-7.397 z"
       id="path4222"
       sodipodi:nodetypes="ccccccccccc" />
    <path
       style="fill:#ffcc00;stroke:none;stroke-width:0.264583px;stroke-linecap:butt;stroke-linejoin:miter;stroke-opacity:1"
       d="m 147.10724,165.35184 -6.91675,4.74276 1.16411,1.83102 3.38259,-3.10039 0.65702,1.00524 -1.39217,7.19704 0.77061,0.84939 0.92413,-0.86352 0.75698,-7.51961 4.93848,3.06586 1.10997,-0.71406 -0.9719,-1.38212 -4.65538,-1.77868 -0.57296,-0.83168 1.81625,-0.9994 z"
       id="path4228" />
    <path
       style="fill:#ffcc00;stroke:none;stroke-width:0.264583px;stroke-linecap:butt;stroke-linejoin:miter;stroke-opacity:1"
       d="m 153.87719,176.91843 -3.77048,-0.78181 -2.02582,4.98799 4.58446,0.37909 z"
       id="path4232" />
    <path
       style="fill:#ffcc00;stroke:none;stroke-width:0.264583px;stroke-linecap:butt;stroke-linejoin:miter;stroke-opacity:1"
       d="m 102.19437,112.48128 -2.362229,-0.5809 -1.460556,2.75713 2.813375,-0.13146 z"
       id="path4234" />
    <path
       style="fill:#ffcc00;fill-opacity:1;stroke:none;stroke-width:0.0025;stroke-linecap:round;paint-order:fill markers stroke"
       d="m 133.97665,190.41913 c 2.23059,-0.0104 15.82954,-0.69026 16.55956,-0.82789 0.13067,-0.0246 0.33443,-0.23901 1.08205,-1.13846 1.78912,-2.15244 6.73216,-8.25087 7.24463,-8.938 0.10199,-0.13674 0.14623,-0.25923 0.11018,-0.30503 -0.0331,-0.0421 -0.0583,-0.5228 -0.0558,-1.06825 0.0143,-3.20998 0.18196,-11.46941 0.19275,-12.28181 0.003,-0.22772 -0.0797,-0.90755 -0.0592,-0.92367 0.0351,-0.0277 1.13244,1.90661 1.33348,2.16418 0.0516,0.0662 0.49499,3.42285 0.98703,7.47308 0.49129,4.04412 0.8931,7.36671 0.8929,7.38352 -2e-4,0.0168 -2.10888,2.27526 -4.68595,5.01878 -3.99949,4.25782 -4.70929,4.99094 -4.84747,5.00675 -0.089,0.0102 -3.4634,0.0661 -7.49858,0.12417 l -7.33669,0.10564 -2.20389,-0.87285 c -1.21214,-0.48007 -2.21184,-0.88295 -2.22156,-0.89529 -0.01,-0.0123 0.21825,-0.0235 0.50658,-0.0249 z"
       id="path4236"
       sodipodi:nodetypes="csssscsccssssccsccc" />
    <path
       style="fill:#999999;fill-opacity:1;stroke:none;stroke-width:0.01;stroke-linecap:round;paint-order:fill markers stroke"
       d="M 40.468146,102.43177 C 37.019096,100.51697 28.699564,95.854017 21.95832,92.151199 15.149931,88.411502 9.620622,85.451029 9.548741,85.218621 9.476861,84.986219 7.8448694,76.832251 5.8802705,67.675413 L 2.3082723,51.026618 8.744546,36.738528 c 3.539951,-7.85845 6.533278,-14.289555 6.651839,-14.291346 0.118561,-0.0018 1.620305,1.315135 3.337208,2.9265 l 3.121642,2.929755 -5.215591,11.721767 c -2.868575,6.446969 -5.334126,12.014462 -5.479003,12.372205 -0.194233,0.479615 -0.130248,1.277837 0.243635,3.039374 0.278876,1.313916 1.547516,7.31488 2.8192,13.335476 1.271684,6.020597 2.439803,11.50234 2.595819,12.18165 l 0.283667,1.235109 9.388228,5.215631 c 5.163524,2.868594 12.36067,6.885183 15.993658,8.925755 l 6.605426,3.710136 9.302861,-1.625888 c 14.267085,-2.493489 24.727974,-4.451943 26.238089,-4.912202 1.302173,-0.396885 1.86224,-0.942914 11.919632,-11.620873 l 10.553264,-11.204418 -0.164,-9.523608 c -0.0902,-5.237986 -0.25722,-10.709601 -0.37118,-12.159142 l -0.20717,-2.635533 3.90426,-1.345919 c 2.14734,-0.740257 3.94785,-1.303618 4.00114,-1.251913 0.0533,0.0517 0.28647,6.27698 0.51817,13.833951 l 0.42127,13.739947 -12.82316,13.581591 -12.823158,13.581592 -1.917332,0.334221 c -1.054534,0.18382 -10.348907,1.834274 -20.654163,3.667674 -10.305254,1.83339 -19.320039,3.60292 -19.684087,3.6036 -0.364046,7.9e-4 -3.387516,-1.75706 -6.836564,-3.67185 z"
       id="path4242"
       sodipodi:nodetypes="sssscscscssssscsscssscsscssscccsscs" />
    <path
       style="fill:#666666;fill-opacity:1;stroke:none;stroke-width:0.0188976;stroke-linecap:round;paint-order:fill markers stroke"
       d="M 376.30381,141.41546 349.81071,107.42722 304.31725,88.693261 258.82378,69.959309 242.21822,67.546248 c -25.7041,-3.735229 -48.84544,-6.922421 -52.43225,-7.221348 -3.00947,-0.250811 -3.62856,-0.115045 -8.2237,1.803452 -12.59662,5.259149 -43.61051,19.39228 -92.126525,41.982358 -3.140774,1.46241 -5.790546,2.89868 -5.888383,3.19171 -0.09784,0.29303 -3.403728,-2.55537 -7.346425,-6.32978 C 66.134686,91.336051 59.638119,85.575575 58.849816,85.587481 c -0.370323,0.0056 -1.105954,0.860549 -1.634734,1.899903 -0.528781,1.039354 -0.975722,1.601187 -0.993204,1.248521 -0.04934,-0.995324 2.27127,-5.487025 2.992577,-5.792347 0.354283,-0.149967 27.224733,-12.631628 59.712115,-27.737025 l 59.06796,-27.464358 43.37481,6.346316 43.37481,6.346317 52.58434,21.742538 c 28.92138,11.958396 52.97002,22.123752 53.44142,22.589681 0.4714,0.46593 14.63569,18.528583 31.47619,40.139243 l 30.6191,39.29209 -0.0337,2.50079 c -0.0241,1.79143 -0.0979,2.04078 -0.25988,0.87903 -0.1244,-0.89197 -0.46995,-1.61809 -0.76789,-1.61359 -0.85603,0.0129 -11.32799,3.39308 -20.28128,6.54641 -4.50469,1.58654 -8.31076,2.88644 -8.45793,2.88866 -0.14718,0.002 -12.18949,-15.29066 -26.7607,-33.9842 z"
       id="path4246"
       transform="scale(0.26458333)" />
    <path
       style="fill:#666666;fill-opacity:1;stroke:none;stroke-width:0.00499999;stroke-linecap:round;paint-order:fill markers stroke"
       d="M 45.513547,106.82461 C 44.642264,106.19413 30.789932,98.49638 14.813062,89.764334 11.456464,87.929808 8.6835564,86.336969 8.6510455,86.224693 8.6185348,86.112417 6.9802465,78.424025 5.0104053,69.139381 L 1.4288759,52.258207 7.7566869,38.071972 14.084498,23.885733 14.789941,23.1264 c 0.395477,-0.425688 0.719968,-0.494674 0.747529,-0.467933 0.02756,0.02674 -0.369634,1.820466 -1.3206,3.853311 -0.950966,2.032847 -3.289926,7.154955 -5.1976878,11.382465 -1.9077619,4.227507 -3.9884423,8.837962 -4.6237344,10.24545 L 3.2403716,50.698764 5.608969,61.74896 c 1.3027284,6.077608 2.9391536,13.80432 3.6365002,17.170471 0.8126698,3.922826 1.3327308,6.158941 1.4484588,6.227966 0.529081,0.315563 7.275981,4.054483 12.055126,6.68057 3.008485,1.65313 9.522892,5.263716 14.47646,8.023524 4.953572,2.759809 9.456553,5.251239 10.006627,5.536519 l 1.000132,0.51869 7.520432,-1.39395 c 10.737938,-1.99033 20.403952,-3.71778 20.547928,-3.67219 0.06788,0.0215 -0.194196,0.2819 -0.582387,0.57869 l -0.705803,0.5396 -10.480323,1.90852 c -9.633021,1.75422 -16.349959,2.92231 -18.00335,3.13082 -0.529069,0.0667 -0.730809,0.0322 -1.015223,-0.17358 z"
       id="path4335"
       sodipodi:nodetypes="cssscccssssscsssssscssscssc" />
    <path
       style="fill:#a02c2c;fill-opacity:1;stroke:none;stroke-width:0.00499999;stroke-linecap:round;paint-order:fill markers stroke"
       d="m 103.35433,147.50813 -28.341887,-45.54928 0.377392,-0.29525 c 0.202727,-0.1586 0.307647,-0.23188 0.415849,-0.30776 l 0.460787,-0.43813 28.670799,44.89401 28.49704,44.61343 -0.59983,0.99557 c -0.32991,0.54756 -0.64379,0.99623 -0.69753,0.99704 -0.0537,8e-4 -13.00591,-20.20851 -28.78262,-44.9096 z"
       id="path4337"
       sodipodi:nodetypes="scsccccssss" />
    <path
       style="fill:#d4aa00;fill-opacity:1;stroke:none;stroke-width:0.00125;stroke-linecap:round;paint-order:fill markers stroke"
       d="m 139.50354,193.28404 -4.11736,0.0454 -1.75057,-0.41583 -1.49515,-0.47757 -7.8e-4,-0.0143 c -0.004,-0.0782 0.1648,-0.61327 0.50135,-1.1554 l 0.79328,-0.84126 0.0842,0.003 c 0.15901,0.005 1.11632,0.40806 2.1504,0.81991 l 1.88014,0.74883 7.15126,-0.10292 c 3.9332,-0.0566 8.04912,0.0759 8.04916,0.0785 5e-5,0.003 -0.9453,0.4942 -1.46331,0.72912 l -0.99824,0.45268 -3.33354,0.0423 c -1.83345,0.0233 -5.18635,0.0628 -7.4509,0.0877 z"
       id="path4339"
       sodipodi:nodetypes="ccccsscsscssscccc" />
  </g>
</svg>
