<?xml version="1.0" encoding="UTF-8" standalone="no"?>
<svg
   xmlns:dc="http://purl.org/dc/elements/1.1/"
   xmlns:cc="http://creativecommons.org/ns#"
   xmlns:rdf="http://www.w3.org/1999/02/22-rdf-syntax-ns#"
   xmlns:svg="http://www.w3.org/2000/svg"
   xmlns="http://www.w3.org/2000/svg"
   xmlns:xlink="http://www.w3.org/1999/xlink"
   xmlns:sodipodi="http://sodipodi.sourceforge.net/DTD/sodipodi-0.dtd"
   xmlns:inkscape="http://www.inkscape.org/namespaces/inkscape"
   width="210mm"
   height="297mm"
   viewBox="0 0 210 297"
   version="1.1"
   id="svg1078"
   inkscape:version="1.0.2 (e86c870879, 2021-01-15, custom)"
   sodipodi:docname="ilmank-decoration.svg">
  <defs
     id="defs1072">
    <linearGradient
       inkscape:collect="always"
       id="linearGradient1098">
      <stop
         style="stop-color:#000000;stop-opacity:1;"
         offset="0"
         id="stop1094" />
      <stop
         style="stop-color:#000000;stop-opacity:0;"
         offset="1"
         id="stop1096" />
    </linearGradient>
    <radialGradient
       inkscape:collect="always"
       xlink:href="#linearGradient1098"
       id="radialGradient1100"
       cx="121.47198"
       cy="207.20967"
       fx="121.47198"
       fy="207.20967"
       r="31.633154"
       gradientTransform="matrix(1,0,0,0.2097074,0,163.75627)"
       gradientUnits="userSpaceOnUse" />
    <radialGradient
       inkscape:collect="always"
       xlink:href="#linearGradient1098"
       id="radialGradient1102"
       cx="114.36875"
       cy="207.20437"
       fx="114.36875"
       fy="207.20437"
       r="55.558381"
       gradientTransform="matrix(1,0,0,0.17170755,0,171.62582)"
       gradientUnits="userSpaceOnUse" />
  </defs>
  <sodipodi:namedview
     id="base"
     pagecolor="#ffffff"
     bordercolor="#666666"
     borderopacity="1.0"
     inkscape:pageopacity="0.0"
     inkscape:pageshadow="2"
     inkscape:zoom="11.313708"
     inkscape:cx="139.15361"
     inkscape:cy="366.03873"
     inkscape:document-units="mm"
     inkscape:current-layer="layer1"
     inkscape:document-rotation="0"
     showgrid="false"
     inkscape:window-width="1920"
     inkscape:window-height="1051"
     inkscape:window-x="-9"
     inkscape:window-y="-9"
     inkscape:window-maximized="1"
     showguides="false" />
  <metadata
     id="metadata1075">
    <rdf:RDF>
      <cc:Work
         rdf:about="">
        <dc:format>image/svg+xml</dc:format>
        <dc:type
           rdf:resource="http://purl.org/dc/dcmitype/StillImage" />
        <dc:title />
      </cc:Work>
    </rdf:RDF>
  </metadata>
  <g
     inkscape:label="Livello 1"
     inkscape:groupmode="layer"
     id="layer1">
    <g
       id="mur">
      <rect
         style="opacity:0.832;fill:#deaa87;stroke-width:2.43246;stroke-linecap:round;paint-order:fill markers stroke"
         id="rect1641"
         width="200.43871"
         height="136.07143"
         x="4.8023748"
         y="81.642853" />
      <rect
         style="opacity:0.832;fill:#deaa87;stroke-width:2.29406;stroke-linecap:round;paint-order:fill markers stroke"
         id="rect1643"
         width="200.36751"
         height="58.154369"
         x="4.8023748"
         y="159.55991" />
    </g>
    <rect
       style="fill:#784421;stroke-width:0.151969;stroke-linecap:round;paint-order:fill markers stroke"
       id="sol"
       width="200.42188"
       height="30.956249"
       x="4.8023748"
       y="186.75803" />
    <g
       id="lampe"
       transform="matrix(0.53625175,0,0,0.53625175,61.008147,72.391096)">
      <path
         style="fill:none;stroke:#000000;stroke-width:0.264583px;stroke-linecap:butt;stroke-linejoin:miter;stroke-opacity:1"
         d="m 101.32856,24.588796 c 0,0 0.56795,-16.9382059 0.0334,-17.1720668"
         id="path1691" />
      <path
         style="fill:none;stroke:#000000;stroke-width:0.264583px;stroke-linecap:butt;stroke-linejoin:miter;stroke-opacity:1"
         d="m 100.59585,24.546954 c 0,0 0.56795,-16.938206 0.0334,-17.1720669"
         id="path1691-0" />
      <path
         style="fill:none;stroke:#000000;stroke-width:0.264583px;stroke-linecap:butt;stroke-linejoin:miter;stroke-opacity:1"
         d="m 100.59585,24.546954 0.73271,0.04184"
         id="path1713" />
      <path
         style="fill:none;stroke:#000000;stroke-width:0.264583px;stroke-linecap:butt;stroke-linejoin:miter;stroke-opacity:1"
         d="m 100.62925,7.374887 0.73271,0.041842"
         id="path1715" />
      <path
         style="opacity:1;fill:#000080;fill-opacity:1;stroke:none;stroke-width:0.0134983;stroke-linecap:round;stroke-miterlimit:4;stroke-dasharray:none;stroke-opacity:1;paint-order:fill markers stroke"
         d="m 344.34938,203.69758 c -2.94643,-0.24954 -7.21602,-0.46891 -9.48798,-0.4875 -2.27196,-0.0186 -5.00411,-0.18885 -6.07143,-0.37838 -1.06733,-0.18952 -4.19059,-0.51315 -6.94059,-0.71917 -7.56768,-0.56694 -12.26971,-1.02481 -14.64286,-1.42587 -1.17857,-0.19918 -3.26786,-0.52988 -4.64286,-0.73489 -4.98582,-0.74339 -5.45744,-0.84687 -10.89285,-2.3901 -3.35739,-0.95323 -4.93248,-1.7032 -5.74412,-2.73504 l -0.7822,-0.9944 0.1989,-42.20297 c 0.15511,-32.9114 0.2996,-42.50628 0.65629,-43.58064 0.75297,-2.26798 3.32253,-3.86342 10.8497,-6.73657 1.89929,-0.72498 4.68743,-1.527466 7.32143,-2.107283 7.62284,-1.678004 11.49699,-2.414365 14.64285,-2.783175 1.27679,-0.14969 3.6875,-0.455279 5.35715,-0.679093 6.5834,-0.8825 12.45232,-1.494775 14.32804,-1.494775 1.08314,0 2.85684,-0.164065 3.94157,-0.364586 2.70416,-0.499893 16.01602,-1.132832 27.51506,-1.308261 8.60135,-0.131221 9.55192,-0.205046 9.71084,-0.754164 0.38396,-1.326711 1.01082,-36.796577 0.88651,-50.162368 -0.10406,-11.189573 -0.0375,-14.196502 0.3144,-14.196429 0.24554,5.1e-5 0.44643,-0.240978 0.44643,-0.535621 0,-0.956226 1.56277,-0.620242 2.08945,0.449215 1.0477,2.127417 1.23267,11.233541 0.73084,35.979356 -0.26689,13.160715 -0.48832,25.053572 -0.49206,26.428572 l -0.007,2.5 6.42857,0.206786 c 9.99451,0.321489 22.5646,1.001118 25.71429,1.3903 1.57142,0.194168 5.02678,0.518775 7.67857,0.72135 10.70888,0.81806 12.74574,1.015585 14.28571,1.38535 0.88393,0.212243 2.46146,0.389825 3.50562,0.394625 1.04417,0.0048 2.18925,0.16435 2.54464,0.354546 0.35539,0.190197 1.75107,0.505372 3.10152,0.700386 8.78789,1.269028 17.54434,3.422829 22.99108,5.655039 3.58809,1.47049 5.17771,2.41254 6.875,4.07429 l 1.33928,1.31124 0.009,23.33161 c 0.005,12.83239 0.16014,31.98317 0.3451,42.55729 l 0.33629,19.22567 -1.30932,1.19949 c -2.0885,1.91332 -7.99457,3.61615 -15.45231,4.45519 -1.47322,0.16575 -2.91965,0.39618 -3.21429,0.51207 -0.96475,0.37947 -15.78055,1.857 -23.57143,2.3507 -3.24107,0.20539 -6.96828,0.52946 -8.28269,0.72018 -1.31442,0.19071 -3.80549,0.34887 -5.53572,0.35146 -1.73023,0.003 -5.87802,0.24037 -9.2173,0.52839 -8.02807,0.69245 -59.64776,0.68345 -67.85714,-0.0118 z m 28.00759,-1.01464 c 0.43427,-0.37998 2.77193,-0.54713 10.17269,-0.72737 5.28487,-0.12871 9.70451,-0.29125 9.82143,-0.3612 0.11691,-0.07 2.74382,-0.23147 5.83757,-0.35894 4.75576,-0.19594 5.625,-0.15257 5.625,0.28063 0,0.28181 0.23923,0.60419 0.53163,0.71639 1.10469,0.42391 12.47241,-0.16607 14.05226,-0.7293 2.85794,-1.01889 1.33867,-1.3529 -6.74585,-1.48309 -4.62285,-0.0744 -7.404,-0.25068 -7.27404,-0.46095 0.11572,-0.18724 0.53015,-0.23896 0.92096,-0.11492 0.3908,0.12404 1.18345,0.0296 1.76144,-0.20977 0.84293,-0.34915 0.969,-0.53396 0.63706,-0.93391 -0.51111,-0.61585 -0.36296,-0.77535 0.96401,-1.03788 0.85771,-0.1697 1.10951,-0.0582 1.40253,0.62128 0.21492,0.49832 0.71271,0.86487 1.25,0.92045 1.1141,0.11523 2.7137,-0.70928 2.57439,-1.32696 -0.0573,-0.25407 0.12656,-0.72307 0.40859,-1.04223 0.28203,-0.31917 0.50972,-1.01852 0.50597,-1.55412 -0.004,-0.5356 0.23445,-1.49989 0.52931,-2.14286 0.82239,-1.7933 1.09472,-5.09496 0.46346,-5.61886 -0.8437,-0.7002 -4.47534,-1.41565 -7.33886,-1.44577 -1.47321,-0.0155 -4.52679,-0.26391 -6.78571,-0.55202 -4.37609,-0.55813 -15.66545,-1.37417 -18.92858,-1.36822 -2.42233,0.004 -18.69775,0.793 -24.28571,1.17669 -6.20308,0.42594 -7.05621,0.94852 -6.37392,3.90435 0.32736,1.41818 0.32346,2.14934 -0.0175,3.28747 -0.33129,1.10577 -0.33806,1.5847 -0.0276,1.95872 0.24594,0.29634 0.31382,0.93687 0.16911,1.59575 -0.14156,0.64451 -0.0775,1.29863 0.15466,1.57832 0.2786,0.33569 0.28799,0.76283 0.0316,1.4372 -0.62085,1.63294 -0.46793,3.0559 0.32838,3.0559 0.38127,0 0.7995,0.17198 0.92941,0.38218 0.51879,0.83941 2.1003,1.00203 9.95641,1.02376 6.47893,0.0179 8.30375,-0.0803 8.75,-0.47072 z m -56.93616,-3.07807 c -0.98298,-0.4224 -4.16782,-0.4224 -4.82143,0 -0.36778,0.23767 0.41594,0.34005 2.5,0.32657 2.024,-0.0131 2.79766,-0.12193 2.32143,-0.32657 z m 120.80773,0.11175 c -0.34146,-0.0894 -0.98432,-0.0926 -1.42857,-0.007 -0.44425,0.0854 -0.16488,0.15856 0.62084,0.16253 0.78571,0.004 1.14919,-0.0659 0.80773,-0.15532 z m 4.27411,-1.04181 c -0.11867,-0.11868 -0.42671,-0.13136 -0.68452,-0.0282 -0.28491,0.114 -0.20028,0.19863 0.21577,0.21577 0.37649,0.0155 0.58743,-0.0689 0.46875,-0.18758 z m -92.98639,-6.12351 c -0.12568,-2.89733 -0.387,-5.46875 -0.58071,-5.71429 -0.89372,-1.13281 -4.9076,0.0339 -4.9076,1.42647 0,0.35611 0.48214,1.60259 1.07143,2.76996 0.58928,1.16737 1.07389,2.56903 1.07689,3.11481 0.003,0.54578 0.12355,1.16892 0.26786,1.38476 0.21067,0.31506 2.85869,2.18359 3.21009,2.26513 0.0498,0.0116 -0.0123,-2.34952 -0.13796,-5.24684 z M 381.22095,85.229866 c -0.0697,-1.227678 -0.1268,-0.223214 -0.1268,2.232143 0,2.455357 0.0571,3.459822 0.1268,2.232143 0.0697,-1.227678 0.0697,-3.236607 0,-4.464286 z m 0.71703,-35.692677 c -0.0604,-2.810992 -0.10999,-0.610894 -0.11017,4.889106 -1.8e-4,5.5 0.0492,7.799904 0.10984,5.110894 0.0606,-2.689009 0.0607,-7.189009 3.3e-4,-10 z m 1.4229,-11.45018 c -0.0752,-0.834821 -0.13671,-0.151785 -0.13671,1.517857 0,1.669643 0.0615,2.352679 0.13671,1.517858 0.0752,-0.834822 0.0752,-2.200893 0,-3.035715 z"
         id="path1783"
         transform="scale(0.26458333)" />
      <path
         style="opacity:1;fill:#000000;fill-opacity:1;stroke:none;stroke-width:0.00104133;stroke-linecap:round;stroke-miterlimit:4;stroke-dasharray:none;stroke-opacity:1;paint-order:fill markers stroke"
         d="m 100.83857,24.346267 c -0.31817,-0.02278 -0.58424,-0.04556 -0.59127,-0.05063 -0.007,-0.0051 7.3e-4,-0.161291 0.0171,-0.347164 0.14986,-1.692826 0.31311,-9.315732 0.2812,-13.130139 -0.0179,-2.1450213 0.003,-3.3405686 0.0622,-3.4883921 0.0116,-0.027851 0.0547,-0.056897 0.097,-0.064547 0.057,-0.010298 0.0865,-0.039661 0.11367,-0.1130647 0.0202,-0.054536 0.0517,-0.1123103 0.0701,-0.1283883 0.0492,-0.043189 0.23813,-0.035508 0.37555,0.015264 0.25901,0.095699 0.3666,0.2451412 0.45858,0.6369782 0.15136,0.6447441 0.19677,1.522535 0.19701,3.8086539 2.2e-4,1.896553 -0.0178,2.820764 -0.1466,7.518625 -0.0444,1.620656 -0.0903,3.496512 -0.10205,4.16857 l -0.0213,1.221922 -0.11642,-0.0031 c -0.064,-0.0017 -0.37675,-0.02177 -0.69491,-0.04455 z m -0.0255,-1.168384 c 0.003,-0.500275 -0.0227,-0.79313 -0.0659,-0.744033 -0.0336,0.03816 -0.0372,1.355483 -0.003,1.41447 0.0406,0.07184 0.0665,-0.177525 0.0697,-0.670437 z m 0.25645,-8.746395 c -1.1e-4,-0.688136 -0.009,-1.345869 -0.0214,-1.46163 l -0.0212,-0.210475 -0.0239,0.339098 c -0.0309,0.437757 -0.031,2.203286 -1.1e-4,2.642628 l 0.0238,0.339098 0.0215,-0.198782 c 0.0119,-0.10933 0.0214,-0.761801 0.0213,-1.449937 z m 0.52278,-3.931785 c 0.003,-0.409122 -0.0192,-0.5828126 -0.0647,-0.498783 -0.0309,0.05702 -0.0365,0.866472 -0.006,0.946042 l 0.0221,0.05846 0.023,-0.05846 c 0.0127,-0.03216 0.0244,-0.233423 0.0262,-0.447259 z"
         id="path1795" />
      <ellipse
         style="opacity:1;fill:#ffcc00;fill-opacity:1;stroke:none;stroke-width:0.0101812;stroke-linecap:round;stroke-miterlimit:4;stroke-dasharray:none;stroke-opacity:1;paint-order:fill markers stroke"
         id="path1797"
         cx="100.6853"
         cy="49.808098"
         rx="23.680208"
         ry="4.1093516" />
      <path
         style="opacity:1;fill:#000080;fill-opacity:1;stroke:none;stroke-width:0.00059055;stroke-linecap:round;stroke-miterlimit:4;stroke-dasharray:none;stroke-opacity:1;paint-order:fill markers stroke"
         d="m 311.65906,199.92119 c -0.75047,-0.0293 -1.14844,-0.1012 -1.14844,-0.20748 0,-0.11603 0.31832,-0.24792 0.77481,-0.32103 1.26085,-0.20192 3.28877,-0.11348 4.06074,0.17709 0.19787,0.0745 0.24889,0.12594 0.18353,0.18509 -0.13067,0.11825 -1.15928,0.1848 -2.7847,0.18017 -0.43399,-0.001 -0.92266,-0.007 -1.08594,-0.0138 z"
         id="path1799"
         transform="scale(0.26458333)" />
      <path
         style="opacity:1;fill:#000080;fill-opacity:1;stroke:none;stroke-width:0.000590551;stroke-linecap:round;stroke-miterlimit:4;stroke-dasharray:none;stroke-opacity:1;paint-order:fill markers stroke"
         d="m 324.65125,202.35859 c -0.80473,-0.0791 -1.69988,-0.15372 -3.64844,-0.30405 -4.26165,-0.32879 -6.57419,-0.52635 -8.96875,-0.76622 -2.28797,-0.2292 -3.62949,-0.39812 -5.14063,-0.64731 -1.45332,-0.23966 -2.79509,-0.45126 -4.3125,-0.68008 -3.2137,-0.48461 -4.13842,-0.6423 -5.36718,-0.91525 -0.35128,-0.078 -1.0043,-0.23281 -1.01177,-0.23981 -0.002,-0.002 -0.002,-1.20964 0,-2.68356 l 0.004,-2.67986 0.25782,0.12205 c 5.42885,2.57007 14.43913,4.80337 26.5,6.56832 0.72646,0.10631 2.13347,0.30485 2.16037,0.30485 0.006,0 0.0115,0.44297 0.0115,0.98438 0,0.77816 -0.004,0.98395 -0.0195,0.98235 -0.0107,-0.001 -0.21992,-0.0217 -0.46484,-0.0458 z"
         id="path1801"
         transform="scale(0.26458333)" />
      <path
         style="opacity:1;fill:#000080;fill-opacity:1;stroke:none;stroke-width:0.000590551;stroke-linecap:round;stroke-miterlimit:4;stroke-dasharray:none;stroke-opacity:1;paint-order:fill markers stroke"
         d="m 324.47937,202.35056 c -0.71306,-0.0704 -1.46276,-0.13236 -4.14844,-0.34275 -4.10203,-0.32134 -5.92736,-0.4782 -8.1875,-0.70358 -2.51911,-0.25122 -3.59832,-0.38939 -5.67187,-0.72618 -1.41544,-0.2299 -2.28032,-0.36557 -4.03906,-0.63356 -3.50485,-0.53407 -4.20059,-0.65609 -5.61563,-0.98483 -0.27415,-0.0637 -0.52552,-0.12309 -0.5586,-0.132 l -0.0601,-0.0162 v -2.6869 c 0,-1.47779 0.004,-2.6869 0.008,-2.6869 0.004,0 0.16779,0.0748 0.36328,0.16614 5.02335,2.34791 12.96001,4.39957 23.53513,6.08393 1.30724,0.20821 3.39959,0.51958 4.64844,0.69173 l 0.375,0.0517 0.004,0.98763 0.004,0.98762 -0.0665,-0.002 c -0.0366,-0.001 -0.30207,-0.0254 -0.58996,-0.0538 z"
         id="path1803"
         transform="scale(0.26458333)" />
    </g>
    <path
       style="fill:none;stroke:#000000;stroke-width:0.153998px;stroke-linecap:butt;stroke-linejoin:miter;stroke-opacity:1"
       d="m -34.820419,84.728912 c 0,0 0.330569,-9.858702 0.01944,-9.994819"
       id="path1691-03" />
    <path
       style="fill:none;stroke:#000000;stroke-width:0.153998px;stroke-linecap:butt;stroke-linejoin:miter;stroke-opacity:1"
       d="m -35.246885,84.704559 c 0,0 0.330568,-9.858704 0.01944,-9.99482"
       id="path1691-0-6" />
    <path
       style="fill:none;stroke:#000000;stroke-width:0.153998px;stroke-linecap:butt;stroke-linejoin:miter;stroke-opacity:1"
       d="m -35.246885,84.704559 0.426466,0.02433"
       id="path1713-3" />
    <path
       style="fill:none;stroke:#000000;stroke-width:0.153998px;stroke-linecap:butt;stroke-linejoin:miter;stroke-opacity:1"
       d="m -35.227445,74.709739 0.426466,0.02435"
       id="path1715-7" />
    <path
       style="fill:#000080;fill-opacity:1;stroke:none;stroke-width:0.00207871;stroke-linecap:round;stroke-miterlimit:4;stroke-dasharray:none;stroke-opacity:1;paint-order:fill markers stroke"
       d="m -40.768546,101.78626 c -0.453741,-0.0385 -1.111247,-0.0722 -1.461129,-0.0751 -0.349875,-0.003 -0.770619,-0.0291 -0.934987,-0.0583 -0.164362,-0.0292 -0.645342,-0.0791 -1.068834,-0.11073 -1.165405,-0.0873 -1.889509,-0.15782 -2.254972,-0.21959 -0.181496,-0.0306 -0.503242,-0.0815 -0.714988,-0.11316 -0.767808,-0.11448 -0.840435,-0.13042 -1.677478,-0.36807 -0.517031,-0.14679 -0.759589,-0.26229 -0.884583,-0.42119 l -0.120453,-0.15314 0.03062,-6.49917 c 0.02387,-5.068284 0.04616,-6.545878 0.101077,-6.711323 0.115953,-0.349264 0.511659,-0.59496 1.67083,-1.037421 0.292486,-0.111652 0.721851,-0.235225 1.127481,-0.324516 1.173902,-0.258408 1.770516,-0.371806 2.254971,-0.428601 0.196624,-0.02305 0.567866,-0.07012 0.824988,-0.104583 1.013831,-0.135901 1.917633,-0.230192 2.206487,-0.230192 0.166802,0 0.439947,-0.02526 0.606998,-0.05617 0.416432,-0.07698 2.466432,-0.174454 4.237258,-0.201473 1.324593,-0.02019 1.470975,-0.0316 1.49545,-0.116134 0.05913,-0.204313 0.155661,-5.666598 0.136517,-7.724901 -0.016,-1.723171 -0.0058,-2.186232 0.04842,-2.186221 0.03784,8e-6 0.06875,-0.03711 0.06875,-0.08248 0,-0.147256 0.240661,-0.09551 0.321769,0.06918 0.161341,0.327618 0.189826,1.729941 0.112546,5.540745 -0.04109,2.026722 -0.0752,3.858194 -0.07577,4.069946 l -0.0011,0.38499 0.989986,0.03184 c 1.539132,0.04953 3.474902,0.15417 3.959942,0.214109 0.24199,0.02992 0.7741,0.07989 1.18248,0.111087 1.64915,0.125982 1.96282,0.156399 2.19997,0.21334 0.13613,0.03271 0.37905,0.06003 0.53985,0.06077 0.1608,5.82e-4 0.33714,0.02531 0.39188,0.0546 0.0547,0.02927 0.26966,0.07783 0.47762,0.107852 1.35332,0.195431 2.70179,0.527112 3.54058,0.870865 0.55256,0.226453 0.79736,0.371527 1.05873,0.627432 l 0.20625,0.201927 10e-4,3.593022 c 5.8e-4,1.97617 0.0247,4.92535 0.0532,6.55374 l 0.0518,2.96071 -0.20164,0.18472 c -0.32162,0.29465 -1.23114,0.55688 -2.37962,0.68609 -0.22687,0.0256 -0.44962,0.061 -0.49499,0.0788 -0.14857,0.0585 -2.43018,0.28597 -3.62995,0.36202 -0.49912,0.0316 -1.07311,0.0816 -1.27552,0.11096 -0.20242,0.0294 -0.58604,0.0537 -0.85249,0.0541 -0.26645,4.8e-4 -0.9052,0.037 -1.41944,0.0814 -1.23631,0.10666 -9.185631,0.1053 -10.449854,-0.002 z m 4.313114,-0.15625 c 0.06687,-0.0585 0.426868,-0.0843 1.566571,-0.11198 0.813859,-0.0198 1.494473,-0.0449 1.512481,-0.0556 0.01798,-0.0113 0.422543,-0.0356 0.898971,-0.0553 0.732379,-0.0302 0.866239,-0.0235 0.866239,0.0432 0,0.0434 0.0368,0.0931 0.0819,0.11028 0.17012,0.0653 1.92072,-0.0256 2.16402,-0.11232 0.44011,-0.15691 0.20615,-0.20834 -1.03885,-0.22839 -0.71191,-0.0114 -1.1402,-0.0386 -1.12018,-0.071 0.0178,-0.0288 0.0816,-0.0368 0.14182,-0.0176 0.0602,0.0191 0.18225,0.005 0.27126,-0.0324 0.12981,-0.0538 0.14923,-0.0822 0.0981,-0.14383 -0.0787,-0.0948 -0.0559,-0.1194 0.14846,-0.15982 0.13209,-0.0261 0.17086,-0.009 0.21599,0.0957 0.0331,0.0767 0.10975,0.13319 0.1925,0.14175 0.17156,0.0178 0.4179,-0.10926 0.39645,-0.20435 -0.009,-0.0391 0.0195,-0.1113 0.0629,-0.1605 0.0434,-0.0492 0.0785,-0.15685 0.0779,-0.23933 -5.8e-4,-0.0825 0.0361,-0.23098 0.0815,-0.33 0.12665,-0.27616 0.16859,-0.78461 0.0714,-0.86529 -0.12993,-0.10779 -0.6892,-0.21801 -1.13017,-0.22264 -0.22687,-0.002 -0.69712,-0.0406 -1.044983,-0.0851 -0.673908,-0.086 -2.412448,-0.21162 -2.914963,-0.2107 -0.373035,5.8e-4 -2.879412,0.12212 -3.739946,0.1812 -0.95526,0.0656 -1.086644,0.14608 -0.981569,0.60127 0.0504,0.2184 0.04983,0.33099 -0.0029,0.50626 -0.05105,0.17029 -0.05203,0.24405 -0.0041,0.30164 0.03789,0.0456 0.04831,0.14428 0.02602,0.24574 -0.02183,0.0992 -0.01193,0.19999 0.02381,0.24306 0.04289,0.0517 0.04435,0.11747 0.0046,0.22133 -0.09561,0.25147 -0.07206,0.4706 0.05058,0.4706 0.05872,0 0.123124,0.0265 0.143129,0.0588 0.07989,0.12926 0.323439,0.15431 1.533266,0.15765 0.997743,0.003 1.278757,-0.0124 1.347479,-0.0725 z m -8.768049,-0.47402 c -0.151376,-0.065 -0.641838,-0.065 -0.742489,0 -0.05663,0.0367 0.06405,0.0524 0.384996,0.0503 0.311687,-0.002 0.43083,-0.0188 0.357493,-0.0503 z m 18.604141,0.0172 c -0.0526,-0.0138 -0.1516,-0.0143 -0.22001,-0.001 -0.0684,0.0131 -0.0253,0.0244 0.0956,0.025 0.121,5.8e-4 0.17697,-0.0102 0.12439,-0.024 z m 0.6582,-0.16044 c -0.0183,-0.0182 -0.0657,-0.0203 -0.10542,-0.005 -0.0439,0.0175 -0.0309,0.0305 0.0333,0.0333 0.0579,0.002 0.0905,-0.0102 0.0722,-0.0288 z m -14.31971,-0.943 c -0.01932,-0.44619 -0.0596,-0.84218 -0.08943,-0.88 -0.13763,-0.17445 -0.755761,0.006 -0.755761,0.21968 0,0.0549 0.07425,0.24679 0.165002,0.42656 0.09075,0.17977 0.165375,0.39563 0.165835,0.47968 4.66e-4,0.084 0.01904,0.18001 0.04126,0.21326 0.03242,0.0485 0.440237,0.33625 0.49435,0.34882 0.0077,0.002 -0.0017,-0.36182 -0.02124,-0.808 z m 5.190451,-16.52728 c -0.01075,-0.189059 -0.01956,-0.03437 -0.01956,0.343743 0,0.378122 0.0088,0.532811 0.01956,0.343747 0.01075,-0.189058 0.01075,-0.498431 0,-0.68749 z m 0.11042,-5.496597 c -0.0093,-0.432887 -0.01693,-0.09408 -0.017,0.752911 -2.8e-5,0.846989 0.0076,1.20117 0.01693,0.787068 0.0093,-0.414101 0.0094,-1.107092 5.3e-5,-1.539979 z m 0.219125,-1.763303 c -0.01158,-0.128561 -0.02107,-0.02337 -0.02107,0.233746 0,0.257122 0.0095,0.362308 0.02107,0.233747 0.01158,-0.128561 0.01158,-0.338933 0,-0.467493 z"
       id="path1783-9" />
    <path
       style="fill:#000000;fill-opacity:1;stroke:none;stroke-width:0.000606095;stroke-linecap:round;stroke-miterlimit:4;stroke-dasharray:none;stroke-opacity:1;paint-order:fill markers stroke"
       d="m -35.105612,84.58775 c -0.185188,-0.01327 -0.340051,-0.02655 -0.344143,-0.02945 -0.0041,-0.0029 4.25e-4,-0.09387 0.01,-0.202066 0.08722,-0.985289 0.182244,-5.42212 0.163671,-7.642254 -0.01041,-1.248487 0.0017,-1.944343 0.03621,-2.030381 0.0068,-0.01621 0.03184,-0.03312 0.05645,-0.03758 0.03317,-0.006 0.05035,-0.02309 0.06616,-0.06581 0.01175,-0.03174 0.03009,-0.06537 0.0408,-0.07472 0.02864,-0.02515 0.138601,-0.02067 0.218585,0.0089 0.150754,0.0557 0.213376,0.142681 0.266911,0.370746 0.0881,0.375267 0.114528,0.886175 0.114668,2.216787 1.28e-4,1.103867 -0.01041,1.641794 -0.08533,4.376135 -0.02585,0.943285 -0.05256,2.035107 -0.0594,2.426273 l -0.0124,0.711205 -0.06777,-0.0017 c -0.03725,-0.0011 -0.219284,-0.01269 -0.404464,-0.02596 z m -0.01484,-0.68005 c 0.0017,-0.291177 -0.01321,-0.461629 -0.03836,-0.433053 -0.01956,0.02222 -0.02165,0.788942 -0.0017,0.823276 0.02363,0.04179 0.03871,-0.103327 0.04057,-0.390223 z m 0.149264,-5.090742 c -6.5e-5,-0.400522 -0.0052,-0.783349 -0.01245,-0.850726 l -0.01234,-0.122505 -0.01391,0.197368 c -0.01798,0.254792 -0.01804,1.282399 -6.4e-5,1.538114 l 0.01386,0.197368 0.01251,-0.115699 c 0.0069,-0.06364 0.01245,-0.443399 0.0124,-0.84392 z m 0.304278,-2.288453 c 0.0017,-0.238125 -0.0112,-0.339221 -0.03766,-0.290311 -0.01798,0.03319 -0.02124,0.50432 -0.0035,0.550632 l 0.01286,0.03402 0.01339,-0.03402 c 0.0074,-0.01872 0.01421,-0.13586 0.01525,-0.260321 z"
       id="path1795-1" />
    <ellipse
       style="fill:#ffcc00;fill-opacity:1;stroke:none;stroke-width:0.00592586;stroke-linecap:round;stroke-miterlimit:4;stroke-dasharray:none;stroke-opacity:1;paint-order:fill markers stroke"
       id="path1797-3"
       cx="-35.19482"
       cy="99.407539"
       rx="13.782811"
       ry="2.391804" />
    <path
       style="fill:#000080;fill-opacity:1;stroke:none;stroke-width:1.13112;stroke-linecap:round;stroke-miterlimit:4;stroke-dasharray:none;stroke-opacity:1;paint-order:fill markers stroke"
       d="m -45.802784,101.20471 c -0.115569,-0.005 -0.176859,-0.0156 -0.176859,-0.0319 0,-0.0179 0.04901,-0.0382 0.119318,-0.0494 0.194169,-0.0311 0.506467,-0.0174 0.625349,0.0273 0.03044,0.0114 0.0383,0.0194 0.02829,0.0285 -0.02013,0.0182 -0.178528,0.0285 -0.42884,0.0277 -0.06683,-1.6e-4 -0.142087,-10e-4 -0.167232,-0.002 z"
       id="path1799-1" />
    <path
       style="fill:#000080;fill-opacity:1;stroke:none;stroke-width:1.13112;stroke-linecap:round;stroke-miterlimit:4;stroke-dasharray:none;stroke-opacity:1;paint-order:fill markers stroke"
       d="m -43.802013,101.58006 c -0.123927,-0.0122 -0.261777,-0.0236 -0.561853,-0.0468 -0.656285,-0.0507 -1.012411,-0.0811 -1.381168,-0.118 -0.352343,-0.0353 -0.558933,-0.0613 -0.79165,-0.0996 -0.223804,-0.0369 -0.430434,-0.0695 -0.664112,-0.10474 -0.494903,-0.0746 -0.63731,-0.0989 -0.826537,-0.14095 -0.05407,-0.012 -0.154658,-0.0359 -0.155805,-0.0369 -3.09e-4,-3.1e-4 -3.09e-4,-0.18628 0,-0.41327 l 5.81e-4,-0.41268 0.03969,0.0188 c 0.836029,0.39578 2.223594,0.73971 4.080945,1.0115 0.111879,0.0164 0.32855,0.0469 0.332688,0.0469 0.0011,0 0.0017,0.0682 0.0017,0.1516 0,0.11983 -5.82e-4,0.15152 -0.0029,0.15127 -0.0017,-1.6e-4 -0.03388,-0.003 -0.07159,-0.007 z"
       id="path1801-3" />
    <path
       style="fill:#000080;fill-opacity:1;stroke:none;stroke-width:1.13112;stroke-linecap:round;stroke-miterlimit:4;stroke-dasharray:none;stroke-opacity:1;paint-order:fill markers stroke"
       d="m -43.828483,101.57883 c -0.109809,-0.0113 -0.225262,-0.0204 -0.638853,-0.0528 -0.631705,-0.0494 -0.912801,-0.0736 -1.260854,-0.10836 -0.387941,-0.0387 -0.554136,-0.06 -0.87346,-0.11186 -0.217974,-0.0354 -0.351162,-0.0563 -0.622002,-0.0976 -0.539743,-0.0822 -0.646884,-0.10101 -0.864801,-0.15166 -0.0422,-0.0102 -0.08093,-0.019 -0.08602,-0.0204 l -0.0093,-0.002 v -0.41376 c 0,-0.22758 5.82e-4,-0.41378 0.0011,-0.41378 5.83e-4,0 0.02585,0.0115 0.05593,0.0256 0.773589,0.36157 1.995813,0.67751 3.624359,0.93691 0.201316,0.0321 0.523532,0.08 0.71585,0.10655 l 0.05774,0.008 5.82e-4,0.1521 5.82e-4,0.15209 -0.01029,-3e-4 c -0.0058,-1.6e-4 -0.0465,-0.005 -0.09086,-0.008 z"
       id="path1803-7" />
    <path
       style="opacity:1;fill:#784421;fill-opacity:1;stroke:none;stroke-width:0.0534506;stroke-linecap:round;stroke-miterlimit:4;stroke-dasharray:none;stroke-opacity:1;paint-order:fill markers stroke"
       d="m -1585.8237,-1559.1082 c -1.0316,-9.1689 -13.5103,-157.9167 -13.5103,-161.045 0,-1.8253 2.3862,-2.4504 12.3744,-3.242 6.8059,-0.5394 177.4572,-14.9547 379.2252,-32.034 201.7679,-17.0793 367.06191,-30.8422 367.31992,-30.5842 0.3886,0.3886 -16.53882,195.0412 -17.0122,195.6275 -0.18166,0.2251 -721.75522,38.7564 -725.18852,38.7244 -1.8097,-0.017 -2.5715,-1.7849 -3.2085,-7.4467 z"
       id="path1911"
       transform="scale(0.26458333)" />
    <path
       style="opacity:1;fill:#784421;fill-opacity:1;stroke:none;stroke-width:0.0534506;stroke-linecap:round;stroke-miterlimit:4;stroke-dasharray:none;stroke-opacity:1;paint-order:fill markers stroke"
       d="m -1115.6852,-1173.7334 c -0.023,-44.8263 4.5143,-377.2438 5.1583,-377.8993 0.8803,-0.896 248.24988,-3.099 249.13017,-2.2188 0.62794,0.628 -32.62207,380.53 -34.55444,394.806 l -0.79194,5.8507 -44.05755,0.8318 c -24.23164,0.4575 -73.49084,1.1665 -109.46494,1.5756 l -65.4074,0.7437 z"
       id="path1913"
       transform="scale(0.26458333)" />
    <path
       style="opacity:1;fill:#784421;fill-opacity:1;stroke:none;stroke-width:0.0185172;stroke-linecap:round;stroke-miterlimit:4;stroke-dasharray:none;stroke-opacity:1;paint-order:fill markers stroke"
       d="m -414.7672,-358.31539 c -0.0166,-0.0842 -0.9514,-17.03334 -2.07728,-37.66473 l -2.04702,-37.51164 h 0.99944 c 0.54969,0 28.22546,-2.35471 61.50169,-5.23518 33.27622,-2.88052 60.5861,-5.10622 60.68861,-4.94603 0.10255,0.16014 0.0566,19.28203 -0.10213,42.49305 l -0.28848,42.20191 -42.92602,0.40681 c -44.11688,0.41812 -75.69553,0.52392 -75.74882,0.25373 z"
       id="path1915" />
    <path
       style="opacity:1;fill:#784421;fill-opacity:1;stroke:none;stroke-width:0.0188976;stroke-linecap:round;stroke-miterlimit:4;stroke-dasharray:none;stroke-opacity:1;paint-order:fill markers stroke"
       d="m -1551.2739,-1146.6105 c -0.2385,-1.1648 -15.3046,-180.4479 -15.2944,-182 0.01,-0.8247 1.9536,-0.8749 33.8807,-0.8731 36.4433,0 86.3624,-0.4064 272.625,-2.2303 65.5875,-0.6423 119.3188,-1.1036 119.4028,-1.0253 0.3163,0.2951 -2.2722,182.2899 -2.5973,182.6149 -0.2689,0.269 -367.4903,4.5067 -399.6709,4.6122 -8.0243,0.026 -8.1181,0.014 -8.3459,-1.0984 z"
       id="path1921"
       transform="scale(0.26458333)" />
    <path
       style="opacity:1;fill:#784421;fill-opacity:1;stroke:none;stroke-width:0.0534506;stroke-linecap:round;stroke-miterlimit:4;stroke-dasharray:none;stroke-opacity:1;paint-order:fill markers stroke"
       d="m -926.62607,-935.22991 c -4.66691,-0.24751 -135.76453,-4.57276 -291.32803,-9.61171 -336.6447,-10.90442 -317.4909,-10.08956 -317.4909,-13.50682 0,-1.43296 -2.8937,-36.765 -6.4305,-78.51566 -3.5367,-41.7507 -6.2414,-76.0914 -6.0104,-76.3127 0.2311,-0.2213 56.4229,-1.1348 124.8709,-2.0299 68.4479,-0.8951 214.1826,-2.8065 323.8549,-4.2476 109.67223,-1.441 199.53326,-2.4966 199.69114,-2.3457 0.31531,0.3013 -14.49043,168.17313 -15.88691,180.13028 -0.47691,4.08354 -1.29863,7.30429 -1.82603,7.15722 -0.52739,-0.14708 -4.77727,-0.46991 -9.44417,-0.71741 z"
       id="path1923"
       transform="scale(0.26458333)" />
    <path
       style="opacity:1;fill:#784421;fill-opacity:1;stroke:none;stroke-width:0.0534506;stroke-linecap:round;stroke-miterlimit:4;stroke-dasharray:none;stroke-opacity:1;paint-order:fill markers stroke"
       d="m -1517.5755,-749.33668 c -2.6089,-23.02891 -13.8789,-165.32877 -13.1515,-166.05619 0.7449,-0.74493 610.6413,14.79389 611.42517,15.57778 0.15739,0.15737 -2.68879,33.81356 -6.32483,74.79153 l -6.61097,74.50539 -7.09372,0.71032 c -3.90154,0.39068 -39.86811,1.0754 -79.92575,1.5216 -40.0576,0.44619 -156.1998,2.0564 -258.0939,3.57822 -101.8941,1.52183 -197.4393,2.77348 -212.3227,2.78147 l -27.0606,0.0145 z"
       id="path1925"
       transform="scale(0.26458333)" />
    <path
       style="opacity:1;fill:#a05a2c;fill-opacity:1;stroke:none;stroke-width:0.0377953;stroke-linecap:round;stroke-miterlimit:4;stroke-dasharray:none;stroke-opacity:1;paint-order:fill markers stroke"
       d="m -1188.6805,-721.92397 c -17.0054,-0.31447 5.866,-0.58241 54,-0.63262 45.925,-0.0479 98.575,0.21373 117,0.58139 23.36955,0.46633 7.0399,0.65764 -54,0.63262 -48.125,-0.0197 -100.775,-0.28134 -117,-0.58139 z"
       id="path1931"
       transform="scale(0.26458333)" />
    <path
       style="opacity:1;fill:#a05a2c;fill-opacity:1;stroke:none;stroke-width:0.0377953;stroke-linecap:round;stroke-miterlimit:4;stroke-dasharray:none;stroke-opacity:1;paint-order:fill markers stroke"
       d="m -1516.0218,-728.43345 c -0.3623,-4.28575 -0.6587,-8.98778 -0.6587,-10.44895 v -2.65668 l 101.1389,-1.23352 c 55.6264,-0.67843 128.8639,-1.65472 162.75,-2.16952 33.8861,-0.51481 112.4611,-1.60832 174.6111,-2.43002 62.15,-0.82171 120.37388,-1.77474 129.38641,-2.11785 l 16.38641,-0.62383 -0.67231,9.34493 c -0.36977,5.13971 -0.92239,11.19166 -1.22804,13.44878 l -0.55573,4.10385 -231.65834,0.64853 c -127.4121,0.35669 -258.0245,0.93609 -290.2497,1.28754 l -58.5913,0.639 z"
       id="path1933"
       transform="scale(0.26458333)" />
    <path
       style="opacity:1;fill:#a05a2c;fill-opacity:1;stroke:none;stroke-width:0.0377953;stroke-linecap:round;stroke-miterlimit:4;stroke-dasharray:none;stroke-opacity:1;paint-order:fill markers stroke"
       d="m -919.54701,-898.55307 c -0.20492,-1.73329 -8.31662,-2.01765 -195.63349,-6.8581 -256.7627,-6.63499 -330.5782,-8.42868 -372.5,-9.05164 -20.625,-0.30648 -38.7375,-0.74937 -40.25,-0.9842 -2.567,-0.39854 -2.7586,-0.17901 -2.8798,3.29805 -0.147,4.21444 -3.6674,-32.7917 -3.7905,-39.84425 l -0.08,-4.56924 6.75,0.77109 c 7.8524,0.89703 59.8813,2.8776 167.25,6.36667 42.075,1.36727 159.0369,5.20795 259.9153,8.53485 149.11527,4.91771 183.58032,5.80738 184.2975,4.75739 0.52134,-0.76328 0.62406,1.77605 0.25114,6.20849 -1.03837,12.34196 -3.18719,32.58262 -3.33045,31.37089 z"
       id="path1935"
       transform="scale(0.26458333)" />
    <path
       style="opacity:1;fill:#a05a2c;fill-opacity:1;stroke:none;stroke-width:0.0377953;stroke-linecap:round;stroke-miterlimit:4;stroke-dasharray:none;stroke-opacity:1;paint-order:fill markers stroke"
       d="m -928.6805,-900.05577 c -2.475,-0.50197 -8.55,-0.89826 -13.5,-0.88064 -4.95,0.0176 -17.325,-0.2656 -27.5,-0.62938 -10.175,-0.36378 -26.2625,-0.68477 -35.75,-0.71332 -10.0189,-0.0301 -17.25,-0.44454 -17.25,-0.98856 0,-0.56689 -7.512,-0.73971 -19.0283,-0.43776 -11.7388,0.30778 -19.2572,0.12846 -19.6259,-0.4681 -0.3503,-0.56674 -8.3064,-0.96641 -19.2217,-0.96559 -10.2433,7.8e-4 -27.1741,-0.22419 -37.6241,-0.49992 -10.45,-0.27573 -27.55,-0.73085 -38,-1.01137 -24.1352,-0.64789 -51.383,-1.33341 -77.5,-1.94981 -11.275,-0.2661 -29.725,-0.73992 -41,-1.05292 -11.275,-0.313 -29.275,-0.76279 -40,-0.99954 -10.725,-0.23674 -28.725,-0.68504 -40,-0.99622 -11.275,-0.31117 -29.275,-0.74453 -40,-0.96302 -51.1492,-1.04201 -64.2693,-1.29035 -87.5,-1.65619 -31.1196,-0.49007 -48.5466,-1.57269 -49.0489,-3.04706 -0.6124,-1.79779 -3.4209,-37.9723 -2.9821,-38.41112 0.2206,-0.22064 1.4429,-0.32024 2.7161,-0.22134 5.5835,0.43373 19.2087,1.15366 29.8149,1.57536 6.325,0.25148 17.35,0.69817 24.5,0.99265 16.6856,0.68721 40.2251,1.56416 58,2.16076 7.7,0.25844 21.2,0.72427 30,1.03518 8.8,0.3109 22.75,0.77546 31,1.03235 30.0113,0.93448 47.2958,1.48708 61.5,1.96621 23.9421,0.80759 45.6016,1.52063 62,2.04106 8.525,0.27055 22.025,0.71231 30,0.98168 7.975,0.26937 21.025,0.55902 29,0.64367 7.975,0.0847 15.0877,0.52021 15.806,0.96792 0.7182,0.44771 7.9182,0.82826 16,0.84567 33.1468,0.0714 43.7593,0.3386 45.0007,1.13301 0.7186,0.45991 7.6936,0.83388 15.5,0.83104 7.8063,-0.003 21.1683,0.22467 29.6933,0.5056 37.2151,1.22633 54.18755,1.67172 106.47983,2.79426 16.4889,0.35396 30.18875,0.8525 30.44412,1.10786 0.46975,0.46976 -1.54664,25.74743 -2.60524,32.65939 -0.63592,4.15217 -1.10522,4.28402 -9.31871,2.61819 z"
       id="path1939"
       transform="scale(0.26458333)" />
    <path
       style="opacity:1;fill:#a05a2c;fill-opacity:1;stroke:none;stroke-width:0.0377953;stroke-linecap:round;stroke-miterlimit:4;stroke-dasharray:none;stroke-opacity:1;paint-order:fill markers stroke"
       d="m -927.09306,-899.66986 c -0.41024,-0.41024 -5.99774,-0.81278 -12.41667,-0.89454 -47.45155,-0.60436 -82.17467,-1.63136 -84.98027,-2.51346 -1.8203,-0.57228 -10.8203,-1.00256 -20,-0.95619 -9.1798,0.0464 -25.2405,-0.13634 -35.6905,-0.40605 -10.45,-0.2697 -27.55,-0.70791 -38,-0.97379 -10.45,-0.26589 -27.55,-0.71664 -38,-1.00166 -10.45,-0.28503 -28.225,-0.7431 -39.5,-1.01794 -31.1899,-0.76027 -58.4865,-1.44683 -79.5,-1.99956 -78.5128,-2.06516 -108.3301,-2.70704 -182.5,-3.92865 -39.6297,-0.65272 -71.9821,-2.14095 -73.1807,-3.36636 -0.8702,-0.88959 -4.0145,-38.33399 -3.2807,-39.06781 0.3022,-0.30226 2.4422,-0.4762 4.7555,-0.38653 4.8085,0.18639 45.5326,2.03054 62.7059,2.83957 14.2902,0.67322 36.0154,1.50835 50.5,1.94125 6.05,0.18081 18.2,0.61259 27,0.95949 8.8,0.34691 22.75,0.83639 31,1.08775 14.2676,0.43469 27.1376,0.84274 61,1.93403 8.25,0.26588 22.2,0.73722 31,1.04744 25.9222,0.9138 44.5168,1.4539 69.5,2.01871 12.925,0.29221 26.65,0.73385 30.5,0.98144 3.85,0.24758 20.0458,0.67569 35.9907,0.95134 16.8319,0.29099 30.3794,0.9595 32.3018,1.59394 1.8386,0.60681 8.9578,1.0097 16.0093,0.90601 6.984,-0.10271 20.9341,0.0538 31.0002,0.3478 57.35117,1.67501 127.85107,3.62724 131.448,3.63995 2.5947,0.009 2.75,0.26606 2.75,4.54913 0,4.25261 -1.30498,18.60497 -2.56504,28.21059 -0.5274,4.02049 -0.7342,4.25 -3.82957,4.25 -1.79963,0 -3.60771,-0.33566 -4.01795,-0.7459 z"
       id="path1941"
       transform="scale(0.26458333)" />
    <path
       style="opacity:1;fill:#a05a2c;fill-opacity:1;stroke:none;stroke-width:0.0377953;stroke-linecap:round;stroke-miterlimit:4;stroke-dasharray:none;stroke-opacity:1;paint-order:fill markers stroke"
       d="m -950.6805,-900.07548 c -12.925,-0.44861 -35.65,-1.34592 -50.5,-1.99401 -14.85,-0.6481 -34.425,-1.23616 -43.5,-1.3068 -17.9007,-0.13936 -53.7315,-0.96097 -111,-2.54527 -67.3571,-1.86339 -236.9879,-5.94469 -290.5,-6.9894 -52.1868,-1.01884 -83.3248,-2.41854 -84.6732,-3.8062 -0.3778,-0.38874 -1.4197,-9.21397 -2.3154,-19.61162 -1.3134,-15.24726 -1.3819,-19.05715 -0.3544,-19.69224 0.7008,-0.43309 3.9896,-0.5822 7.3086,-0.33135 14.6601,1.10801 132.6995,5.64226 181.5344,6.97328 17.7776,0.48454 68.7532,2.14596 91.5,2.98221 18.4329,0.67765 32.7101,1.10436 82.5,2.4657 22.825,0.62407 49.15,1.62096 58.5,2.21531 9.35,0.59435 25.4592,1.20459 35.7982,1.3561 28.1529,0.41255 135.56334,3.32299 148.4518,4.02251 l 11.25,0.61059 -0.008,5.15135 c -0.008,4.78962 -1.18035,17.46627 -2.5349,27.40136 -0.56811,4.16682 -0.65163,4.24671 -4.26817,4.08207 -2.029,-0.0924 -14.26393,-0.53497 -27.18893,-0.98359 z"
       id="path1943"
       transform="scale(0.26458333)" />
    <path
       style="opacity:1;fill:#a05a2c;fill-opacity:1;stroke:none;stroke-width:0.0377953;stroke-linecap:round;stroke-miterlimit:4;stroke-dasharray:none;stroke-opacity:1;paint-order:fill markers stroke"
       d="m -958.6805,-899.98596 c -40.87426,-1.6755 -83.699,-3.033 -125.5,-3.97823 -24.2,-0.54722 -78.65,-1.88199 -121,-2.96616 -42.35,-1.08417 -126.725,-3.10071 -187.5,-4.4812 -103.7597,-2.35687 -136.5559,-3.61567 -138.1519,-5.30259 -0.6438,-0.68053 -2.0733,-13.62326 -3.4037,-30.81772 -0.5494,-7.09928 -0.4134,-8.19002 1.0929,-8.76804 0.9461,-0.36307 10.5498,-0.20685 21.3415,0.34717 21.9012,1.12434 108.5576,4.42282 157.6212,5.99966 76.6026,2.46192 158.6721,5.03662 192,6.02346 19.8,0.58628 44.1,1.49788 54,2.02579 9.9,0.5279 37.575,1.41403 61.5,1.96917 70.81406,1.64314 117.08149,2.98847 123.75,3.59831 l 6.25,0.57156 v 5.45982 c 0,5.31527 -1.47878,21.59476 -2.55533,28.131 l -0.5353,3.25 -10.20468,-0.15183 c -5.61258,-0.0835 -18.52969,-0.49308 -28.70469,-0.91017 z"
       id="path1945"
       transform="scale(0.26458333)" />
    <path
       style="opacity:1;fill:#a05a2c;fill-opacity:1;stroke:none;stroke-width:0.0377953;stroke-linecap:round;stroke-miterlimit:4;stroke-dasharray:none;stroke-opacity:1;paint-order:fill markers stroke"
       d="m -968.1805,-899.99761 c -30.08892,-1.20818 -82.6088,-2.8491 -125.5,-3.92109 -85.7544,-2.14329 -167.1517,-4.11307 -268.5,-6.49758 -107.2262,-2.52281 -154.8027,-4.01164 -164.1061,-5.13541 l -5.1062,-0.61678 -1.13,-11.12775 c -2.4007,-23.64038 -2.555,-28.53807 -0.9186,-29.16599 0.8309,-0.31884 24.1795,0.33793 51.8858,1.4595 69.8377,2.82707 121.8266,4.62369 233.8751,8.0822 53.075,1.63822 113.825,3.64689 135,4.46372 21.175,0.81682 56.95,1.95113 79.5,2.5207 68.34085,1.72614 108.79933,3.02585 112.75,3.62203 l 3.75,0.56589 -0.008,6.1621 c -0.008,5.92364 -1.36327,20.63762 -2.52506,27.41211 l -0.55757,3.25 -14.70468,-0.15537 c -8.08758,-0.0854 -23.25469,-0.49867 -33.70469,-0.91828 z"
       id="path1947"
       transform="scale(0.26458333)" />
    <path
       style="opacity:1;fill:#a05a2c;fill-opacity:1;stroke:none;stroke-width:0.0377953;stroke-linecap:round;stroke-miterlimit:4;stroke-dasharray:none;stroke-opacity:1;paint-order:fill markers stroke"
       d="m -977.6805,-900.00275 c -39.9493,-1.56877 -129.1325,-4.03468 -250.5,-6.92631 -244.9196,-5.83531 -287.3952,-7.05934 -298.6899,-8.60746 l -4.5626,-0.62538 -1.1371,-10.13103 c -0.6253,-5.57207 -1.4231,-14.50691 -1.7728,-19.85519 -0.5603,-8.56919 -0.4351,-9.80121 1.0546,-10.37285 1.5547,-0.59658 27.0256,0.16187 87.6078,2.60874 41.2697,1.66684 79.2144,2.96189 176.5,6.02392 52.25,1.64455 113.675,3.65621 136.5,4.47035 22.825,0.81415 73.225,2.36695 112,3.45067 78.72875,2.20039 99.68555,2.95504 102.25,3.68201 1.45895,0.41358 1.75,1.69502 1.75,7.70494 0,6.78106 -1.35248,20.78207 -2.59913,26.90638 l -0.55978,2.75 -19.17055,-0.15652 c -10.54379,-0.0861 -27.94554,-0.50111 -38.67054,-0.92227 z"
       id="path1949"
       transform="scale(0.26458333)" />
    <path
       style="opacity:1;fill:#a05a2c;fill-opacity:1;stroke:none;stroke-width:0.0267253;stroke-linecap:round;stroke-miterlimit:4;stroke-dasharray:none;stroke-opacity:1;paint-order:fill markers stroke"
       d="m -1515.6839,-726.89383 c -0.4655,-6.55796 -0.6162,-14.01327 -0.2866,-14.17656 0.3131,-0.15509 71.4186,-1.35945 99.8788,-1.69171 15.1675,-0.17707 38.8732,-0.45573 52.6795,-0.61925 13.8063,-0.16352 36.3617,-0.288 50.1233,-0.27663 15.6989,0.013 24.8657,-0.23061 24.6041,-0.65379 -0.2627,-0.42513 9.1778,-0.57099 25.5372,-0.39455 14.2747,0.15395 25.5796,0.0162 25.122,-0.30604 -0.4576,-0.32227 11.3157,-0.52526 26.1629,-0.45107 16.4376,0.0821 26.0271,-0.10564 24.5201,-0.48013 -1.6637,-0.41342 -0.2754,-0.49067 4.2353,-0.23566 8.3693,0.47313 100.9794,-0.60623 97.5881,-1.13739 -1.3612,-0.21319 9.1393,-0.41892 23.3345,-0.45718 27.3706,-0.0738 63.63467,-0.56657 95.10584,-1.29242 19.28194,-0.44472 33.74688,-0.46476 34.17305,-0.0474 0.24955,0.24443 -1.05456,16.91631 -1.75607,22.44966 l -0.42581,3.35876 -97.66641,0.11498 c -87.2368,0.10271 -93.1736,0.1756 -55.5936,0.68262 57.5935,0.77703 63.8239,0.9883 35.0018,1.18689 -13.6118,0.0938 -61.8188,-0.20888 -107.1267,-0.6726 -65.3018,-0.66835 -109.641,-0.65266 -213.8998,0.0757 -72.337,0.50535 -133.6202,1.06124 -136.185,1.2353 l -4.6631,0.31649 z"
       id="path1951"
       transform="scale(0.26458333)" />
    <path
       style="opacity:1;fill:#a05a2c;fill-opacity:1;stroke:none;stroke-width:0.0267253;stroke-linecap:round;stroke-miterlimit:4;stroke-dasharray:none;stroke-opacity:1;paint-order:fill markers stroke"
       d="m -1515.6763,-726.20222 c -0.2544,-3.26797 -0.4644,-7.89072 -0.4667,-10.27279 0,-4.28626 0.019,-4.3356 2.2054,-4.77297 1.2154,-0.24307 10.8409,-0.4426 21.39,-0.4434 10.5492,-8e-4 28.2489,-0.31464 39.3328,-0.69743 11.0839,-0.38278 41.4718,-0.88893 67.5287,-1.12478 89.0121,-0.80567 92.1775,-0.84137 170.7663,-1.92571 13.8063,-0.1905 36.2392,-0.35981 49.851,-0.37625 13.6119,-0.0164 24.3812,-0.28814 23.932,-0.60378 -0.4493,-0.31564 10.6876,-0.61638 24.7487,-0.6683 14.061,-0.0519 31.6113,-0.29721 39.0006,-0.54507 7.3893,-0.24786 26.1629,-0.46932 41.7193,-0.49215 15.5563,-0.0228 34.6482,-0.33 42.42639,-0.68261 16.23993,-0.73623 59.58556,-1.0613 60.19542,-0.45145 0.4002,0.40021 -0.75389,17.0135 -1.5942,22.94856 l -0.42549,3.00521 -81.41372,0.11296 c -65.2865,0.0906 -76.1611,0.22563 -54.8973,0.68174 43.7979,0.93946 44.2337,1.01611 6.7175,1.1814 -19.8343,0.0874 -65.8301,-0.20077 -102.2129,-0.64037 -49.2931,-0.59558 -98.5761,-0.5939 -193.3937,0.007 -69.9838,0.44321 -133.4767,1.00756 -141.0955,1.2541 l -13.8522,0.44826 z"
       id="path1953"
       transform="scale(0.26458333)" />
    <path
       style="opacity:1;fill:#a05a2c;fill-opacity:1;stroke:none;stroke-width:0.0267253;stroke-linecap:round;stroke-miterlimit:4;stroke-dasharray:none;stroke-opacity:1;paint-order:fill markers stroke"
       d="m -1515.6764,-725.14175 c -0.2534,-2.6845 -0.4631,-7.33253 -0.4658,-10.32895 l -0.01,-5.44803 2.2981,-0.35069 c 1.264,-0.19288 13.9124,-0.5174 28.1075,-0.72116 14.1952,-0.20376 42.0375,-0.67848 61.8719,-1.05494 31.84,-0.60432 73.201,-1.13288 148.1388,-1.8931 12.2507,-0.12428 36.5928,-0.43114 54.0937,-0.68192 17.5009,-0.25077 42.3203,-0.56043 55.1543,-0.68812 12.834,-0.12768 31.1304,-0.36954 40.6587,-0.53746 70.6791,-1.24558 109.1647,-1.84769 121.5533,-1.9017 7.93467,-0.0346 14.6454,-0.19807 14.91274,-0.3633 0.77424,-0.4785 55.84729,-0.61237 56.32275,-0.1369 0.42423,0.42422 -0.81769,18.1676 -1.63022,23.29122 l -0.42052,2.65166 -70.08995,0.14392 c -38.5495,0.0792 -67.495,0.25064 -64.3234,0.38107 3.1716,0.13043 13.6722,0.49347 23.3345,0.80677 28.4588,0.92276 -60.151,0.93725 -126.6818,0.0207 -54.4757,-0.75047 -263.4284,0.051 -320.0303,1.22751 l -22.3383,0.46432 z"
       id="path1955"
       transform="scale(0.26458333)" />
    <path
       style="opacity:1;fill:#a05a2c;fill-opacity:1;stroke:none;stroke-width:0.0267253;stroke-linecap:round;stroke-miterlimit:4;stroke-dasharray:none;stroke-opacity:1;paint-order:fill markers stroke"
       d="m -1515.6861,-723.67347 c -0.2536,-1.85053 -0.4612,-6.48072 -0.4612,-10.28932 0,-5.99178 0.1667,-6.97133 1.2375,-7.27068 2.1648,-0.60521 99.084,-2.32273 185.4387,-3.28618 35.9741,-0.40136 86.5676,-1.01873 112.43,-1.37193 25.8624,-0.35321 48.2954,-0.62653 49.851,-0.60738 1.5557,0.0191 24.9432,-0.32351 51.9724,-0.76148 147.4858,-2.38977 181.40569,-2.76409 182.15958,-2.01019 0.47433,0.47433 -0.85465,20.11798 -1.61995,23.94445 l -0.40421,2.02104 h -61.54775 c -33.85127,0 -61.35427,0.19344 -61.11787,0.42987 0.2364,0.23644 6.8921,0.6632 14.7903,0.94837 18.6625,0.67381 -68.1545,0.75048 -142.9708,0.12627 -57.287,-0.47796 -239.6117,0.13261 -296.3469,0.99241 l -32.9496,0.49934 z"
       id="path1957"
       transform="scale(0.26458333)" />
    <path
       style="opacity:1;fill:#a05a2c;fill-opacity:1;stroke:none;stroke-width:0.0267253;stroke-linecap:round;stroke-miterlimit:4;stroke-dasharray:none;stroke-opacity:1;paint-order:fill markers stroke"
       d="m -1515.2574,-720.93368 c -0.295,-0.72094 -0.5363,-5.60648 -0.5363,-10.85675 v -9.54594 l 13.435,-0.468 c 22.5846,-0.78673 96.9775,-1.95934 217.0818,-3.42173 109.758,-1.33642 156.5671,-1.98823 254.5584,-3.54466 60.93508,-0.96785 97.00107,-1.15609 97.64917,-0.50967 0.54055,0.53915 -0.82978,21.49611 -1.59756,24.43212 l -0.40355,1.54317 -53.83442,0.12094 c -29.60894,0.0665 -54.47084,0.18057 -55.24864,0.25345 -4.1638,0.39012 -2.5961,0.6662 6.0104,1.05846 5.2503,0.23929 -60.4576,0.29545 -146.0175,0.1248 -143.3319,-0.28588 -326.7541,0.66396 -329.47,1.70613 -0.671,0.2575 -1.2968,-0.0858 -1.6268,-0.89232 z"
       id="path1959"
       transform="scale(0.26458333)" />
    <path
       style="opacity:1;fill:#a05a2c;fill-opacity:1;stroke:none;stroke-width:0.0267253;stroke-linecap:round;stroke-miterlimit:4;stroke-dasharray:none;stroke-opacity:1;paint-order:fill markers stroke"
       d="m -1515.7749,-723.3908 c -0.2526,-2.09189 -0.3602,-6.98541 -0.239,-10.8745 l 0.2202,-7.07107 10.7421,-0.46122 c 16.1671,-0.69416 86.3288,-1.90201 178.4089,-3.07134 131.2866,-1.66722 188.1119,-2.43461 236.5273,-3.19415 103.85798,-1.62932 147.36784,-2.10717 152.2047,-1.6716 l 5.12652,0.46165 -0.006,3.26122 c -0.008,4.15439 -1.29983,18.84683 -1.85041,21.04049 l -0.41786,1.66618 -39.34455,0.002 c -21.6395,9.2e-4 -46.3449,0.23961 -54.9009,0.53033 -15.11,0.51343 -15.323,0.54079 -7.4246,0.95358 4.4725,0.23374 -55.1897,0.28486 -132.5825,0.1136 -132.7957,-0.29385 -334.3674,0.68961 -342.3542,1.67033 l -3.65,0.4482 -0.4593,-3.80343 z"
       id="path1961"
       transform="scale(0.26458333)" />
    <path
       style="opacity:1;fill:#a05a2c;fill-opacity:1;stroke:none;stroke-width:0.0267253;stroke-linecap:round;stroke-miterlimit:4;stroke-dasharray:none;stroke-opacity:1;paint-order:fill markers stroke"
       d="m -1515.6878,-721.89188 c -0.2527,-1.26343 -0.4595,-6.18715 -0.4595,-10.94161 v -8.64445 l 12.1976,-0.46469 c 26.502,-1.00963 78.2004,-1.83455 272.7665,-4.35239 44.9189,-0.58129 101.7173,-1.36578 126.2185,-1.74332 114.36522,-1.76224 161.83617,-2.27844 166.79542,-1.81372 l 5.3851,0.50462 -5.9e-4,4.00554 c -6.8e-4,4.59755 -1.26745,18.95549 -1.83508,20.79932 -0.35504,1.15328 -2.4376,1.23744 -30.62358,1.23744 -38.04087,0 -77.90407,0.86996 -69.36417,1.51378 3.3058,0.24921 -44.583,0.3237 -106.4195,0.16552 -112.3751,-0.28746 -359.7003,0.78396 -369.1807,1.59931 l -5.0206,0.43179 z"
       id="path1963"
       transform="scale(0.26458333)" />
    <path
       style="opacity:1;fill:#a05a2c;fill-opacity:1;stroke:none;stroke-width:0.0377953;stroke-linecap:round;stroke-miterlimit:4;stroke-dasharray:none;stroke-opacity:1;paint-order:fill markers stroke"
       d="m -1549.6467,-1126.7297 c -0.7511,-9.7785 -1.1615,-17.9834 -0.9118,-18.233 0.431,-0.4311 54.5011,-1.1259 269.8212,-3.4673 51.975,-0.5652 104.0286,-1.2997 115.6748,-1.6322 l 21.1748,-0.6046 0.5554,-7.1419 c 0.7776,-9.9996 2.8764,-173.6938 2.2352,-174.335 -0.2884,-0.2884 -83.6879,0.2187 -185.3323,1.1268 -101.6444,0.9082 -197.2503,1.7446 -212.4577,1.8588 l -27.6498,0.2075 -0.5682,-5.5 c -0.3126,-3.025 -0.8727,-8.8323 -1.2448,-12.9052 l -0.6765,-7.4053 7.8946,0.6255 c 10.2685,0.8136 419.6888,-1.2813 420.5517,-2.1519 0.3615,-0.3647 0.9838,-44.4263 1.3828,-97.9146 l 0.7255,-97.2516 -2.8828,0.4557 c -1.5855,0.2507 -10.0827,0.7183 -18.8827,1.0393 -14.4916,0.5286 -168.2145,8.7089 -282,15.0066 -66.5347,3.6825 -137.5609,7.5015 -139.5131,7.5015 -1.4115,0 -1.8253,-1.357 -2.3633,-7.75 -1.3292,-15.795 -1.5748,-21.7316 -0.7964,-19.25 0.7424,2.3669 1.1272,2.4859 7.2284,2.2343 8.2719,-0.3411 60.9351,-2.9793 84.9444,-4.2553 10.175,-0.5408 65.3,-3.4622 122.5,-6.492 125.8245,-6.6648 199.984,-10.6253 346.5,-18.5051 148.55164,-7.9892 146.12335,-7.8565 157.01954,-8.5772 l 9.51958,-0.6296 -2.01958,23.3624 c -1.11077,12.8494 -2.15674,21.225 -2.32437,18.6125 l -0.30479,-4.75 -68.19521,0.06 c -69.65868,0.061 -179.39927,1.3106 -180.13917,2.0505 -1.0586,1.0585 -6.2222,399.5565 -5.1907,400.588 0.7155,0.7155 177.14404,-1.3503 202.83493,-2.3749 13.20473,-0.5267 15.76656,-0.8804 16.11737,-2.225 0.22941,-0.8793 0.26937,0.2012 0.0888,2.4012 -0.18057,2.2 -0.89382,10.975 -1.58502,19.5 -0.69119,8.525 -1.41677,14.7125 -1.61239,13.75 -0.43697,-2.1499 -9.42329,-2.2099 -112.70909,-0.7533 -38.5,0.543 -140.875,1.8907 -227.5,2.9949 -86.625,1.1043 -186.662,2.4579 -222.3045,3.0081 -35.6425,0.5502 -69.4737,1.0003 -75.1804,1.0003 -9.9924,0 -10.3886,0.083 -10.7173,2.25 -0.1878,1.2375 -0.9559,-5.7506 -1.7071,-15.5291 z"
       id="path2049"
       transform="scale(0.26458333)" />
    <path
       style="opacity:1;fill:#a05a2c;fill-opacity:1;stroke:none;stroke-width:0.0377953;stroke-linecap:round;stroke-miterlimit:4;stroke-dasharray:none;stroke-opacity:1;paint-order:fill markers stroke"
       d="m -1548.0758,-1114.5858 c -0.3475,-1.3006 -0.9328,-8.5523 -1.3006,-16.1148 l -0.669,-13.75 5.9041,-0.1681 5.904,-0.1681 -6,-0.6159 c -3.3,-0.3388 12.225,-0.6006 34.5,-0.5819 22.275,0.019 65.925,-0.3272 97,-0.7688 31.075,-0.4415 75.4,-1.0074 98.5,-1.2575 91.3591,-0.9893 117.058,-1.3741 143,-2.1413 l 27,-0.7984 0.7537,-14 c 1.6501,-30.6474 2.6897,-164.693 1.2895,-166.2619 -0.7754,-0.8688 -171.9488,-0.121 -321.5432,1.4048 -36.575,0.3731 -74.6,0.7185 -84.5,0.7677 l -18,0.089 -0.6704,-7 c -0.3687,-3.85 -0.9451,-9.513 -1.2809,-12.5844 l -0.6106,-5.5844 182.2809,-0.6713 c 100.2545,-0.3692 196.5004,-0.9649 213.8796,-1.3237 l 31.5987,-0.6525 0.7975,-27.0918 c 0.4387,-14.9005 0.8914,-52.2919 1.0061,-83.0919 0.1147,-30.8 0.5598,-62.4756 0.9892,-70.3902 l 0.7807,-14.3903 -5.3854,0.6042 c -5.1071,0.5729 -48.0741,3.0289 -72.8854,4.1661 -6.325,0.2899 -15.325,0.7533 -20,1.0299 -4.675,0.2765 -13.9,0.7657 -20.5,1.0871 -21.511,1.0474 -24.8686,1.2236 -35,1.8372 -9.9714,0.6038 -23.2798,1.3252 -37.5,2.0326 -4.125,0.2052 -14.7,0.7836 -23.5,1.2852 -8.8,0.5016 -17.35,0.9401 -19,0.9745 -1.65,0.034 -7.5,0.3357 -13,0.6698 -5.5,0.334 -14.275,0.8314 -19.5,1.1053 -18.8288,0.9869 -30.6597,1.599 -39.5,2.0438 -4.95,0.249 -13.275,0.6916 -18.5,0.9835 -5.225,0.2918 -12.65,0.7014 -16.5,0.9102 -3.85,0.2087 -11.95,0.6657 -18,1.0155 -6.05,0.3498 -14.825,0.8273 -19.5,1.0611 -4.675,0.2338 -13.225,0.6661 -19,0.9607 -5.775,0.2946 -14.775,0.7524 -20,1.0173 -5.225,0.265 -13.6497,0.6057 -18.7215,0.7573 -10.7693,0.3218 -9.7859,1.6594 -10.8517,-14.7608 l -0.649,-10 h 8.3611 c 4.5986,0 17.1361,-0.419 27.8611,-0.9311 10.725,-0.5121 22.2,-1.035 25.5,-1.162 3.3,-0.1269 11.85,-0.5301 19,-0.8959 7.15,-0.3657 16.6,-0.8278 21,-1.0268 4.4,-0.199 12.95,-0.6312 19,-0.9604 6.05,-0.3293 15.05,-0.8108 20,-1.07 4.95,-0.2593 12.825,-0.6789 17.5,-0.9326 15.4117,-0.8364 29.361,-1.5743 39,-2.0632 5.225,-0.265 13.1,-0.6873 17.5,-0.9385 10.7333,-0.6126 23.8177,-1.3135 56.5,-3.0266 4.675,-0.245 12.55,-0.6768 17.5,-0.9594 4.95,-0.2826 13.725,-0.7572 19.5,-1.0545 18.1785,-0.9359 42.1526,-2.2067 56,-2.9684 4.675,-0.2572 12.775,-0.6925 18,-0.9673 24.8305,-1.306 31.1752,-1.6385 40,-2.0963 21.7074,-1.126 25.0076,-1.3043 36,-1.9451 6.325,-0.3687 15.1,-0.8376 19.5,-1.042 4.4,-0.2044 12.05,-0.603 17,-0.8858 11.0822,-0.6332 26.9103,-1.4791 39.5,-2.1112 10.1422,-0.5092 22.2338,-1.1565 36,-1.927 4.675,-0.2617 13,-0.7098 18.49996,-0.9958 5.5,-0.286 14.275,-0.7532 19.5,-1.0382 5.225,-0.2849 13.775,-0.7448 19,-1.0219 5.225,-0.2771 13.1,-0.7099 17.5,-0.9619 4.4,-0.2519 12.725,-0.686 18.5,-0.9646 14.717,-0.7099 26.10099,-1.3437 52.88316,-2.944 l 11.38317,-0.6801 -0.59724,5.7853 c -0.32848,3.1819 -1.1447,11.9803 -1.81382,19.552 -0.66912,7.5717 -1.52032,13.2753 -1.89156,12.6746 -0.4852,-0.7851 -29.74386,-0.9046 -104.06934,-0.4252 -56.86693,0.3668 -110.59433,0.8373 -119.39433,1.0455 -8.8,0.2082 -17.8721,0.3921 -20.1603,0.4085 l -4.1602,0.03 -0.5886,8.25 c -0.7404,10.3783 -2.5119,113.1251 -2.9956,173.75 -0.094,11.825 -0.551,65.6489 -1.0146,119.6087 l -0.843,98.1087 2.3811,0.5412 c 2.164,0.4919 42.3111,0.2806 133.88116,-0.7048 37.40184,-0.4024 66.3392,-1.2096 75.75,-2.113 5.39415,-0.5178 6.25,-0.373 6.25,1.0575 0,2.6783 -2.0054,25.728 -2.52368,29.0067 l -0.47501,3.0049 -50.25065,0.09 c -27.63786,0.05 -72.07562,0.4317 -98.75062,0.8488 -26.675,0.4171 -62.225,0.8987 -79,1.0703 -16.775,0.1716 -48.95,0.5873 -71.5,0.9237 -22.55,0.3365 -55.4,0.7985 -73,1.0268 -17.6,0.2282 -47.975,0.6574 -67.5,0.9537 -70.2971,1.0668 -117.1735,1.676 -155,2.0143 -21.175,0.1894 -41.6966,0.67 -45.6034,1.068 -6.8979,0.7027 -7.1216,0.6552 -7.7351,-1.6411 z"
       id="path2055"
       transform="scale(0.26458333)" />
    <path
       style="opacity:1;fill:#a05a2c;fill-opacity:1;stroke:none;stroke-width:0.0377953;stroke-linecap:round;stroke-miterlimit:4;stroke-dasharray:none;stroke-opacity:1;paint-order:fill markers stroke"
       d="m -1548.0405,-1113.7982 c -0.3113,-0.8112 -0.8466,-7.0274 -1.1896,-13.8137 -0.343,-6.7863 -0.8311,-13.3512 -1.0845,-14.5887 -0.4175,-2.0383 -0.059,-2.2633 3.8082,-2.3919 l 4.2691,-0.1419 -4,-0.7162 c -2.2,-0.3939 17.825,-0.8488 44.5,-1.011 56.1083,-0.341 67.1623,-0.4527 194,-1.9598 104.4366,-1.241 161.7545,-2.4503 162.7378,-3.4337 0.3546,-0.3546 0.969,-7.9462 1.3652,-16.8701 1.0798,-24.3173 2.3154,-156.9219 1.4928,-160.1996 l -0.7147,-2.8475 -107.1906,0.6888 c -58.9548,0.3789 -153.9575,1.1368 -211.1172,1.6842 -57.1597,0.5475 -104.2328,0.6474 -104.607,0.2221 -0.7539,-0.857 -3.4359,-24.1647 -2.8406,-24.6859 0.2059,-0.1802 95.0993,-0.8467 210.8743,-1.4811 115.775,-0.6343 211.7229,-1.4175 213.2176,-1.7403 1.4947,-0.3228 2.9553,-1.3355 3.2457,-2.2506 0.2904,-0.915 0.971,-41.7028 1.5125,-90.6396 0.5414,-48.9367 1.2898,-91.8589 1.6631,-95.3825 l 0.6787,-6.4066 -3.9088,0.6612 c -2.1499,0.3637 -41.9338,2.685 -88.4088,5.1584 -88.5509,4.7129 -106.7224,5.6893 -241.5,12.9764 -45.65,2.4682 -89.3595,4.7362 -97.1322,5.0399 -16.5648,0.6475 -14.8744,2.2112 -15.9694,-14.7727 l -0.693,-10.75 h 11.0556 c 17.6624,0 186.843,-8.7605 589.73896,-30.5378 56.1,-3.0323 107.5125,-5.7962 114.25,-6.1421 11.59545,-0.5951 12.25068,-0.527 12.2628,1.2756 0.007,1.0474 -0.72874,9.7793 -1.63508,19.4043 l -1.64788,17.5 -70.11492,-0.317 c -38.56321,-0.1743 -94.47818,-0.01 -124.25548,0.3679 l -54.1405,0.6847 -0.6304,16.6322 c -0.7533,19.8742 -2.3115,126.3965 -3.0593,209.1322 -0.2957,32.725 -0.8155,85.3363 -1.1549,116.9141 l -0.6173,57.414 83.8715,-0.6918 c 46.1293,-0.3806 95.07904,-1.1343 108.77719,-1.675 13.69815,-0.5407 25.12117,-0.7677 25.38449,-0.5044 0.53431,0.5343 -1.60844,27.7639 -2.46252,31.2931 l -0.54452,2.25 -45.64159,0 c -25.10287,10e-4 -77.81655,0.4542 -117.14155,1.0071 -110.9837,1.5605 -360.4059,4.8806 -411.5,5.4775 -25.3,0.2956 -52.1284,0.7857 -59.6186,1.0892 -11.4339,0.4632 -13.7094,0.3151 -14.1846,-0.9232 z"
       id="path2057"
       transform="scale(0.26458333)" />
    <path
       style="opacity:1;fill:#d38d5f;fill-opacity:1;stroke:none;stroke-width:0.0197153;stroke-linecap:round;stroke-miterlimit:4;stroke-dasharray:none;stroke-opacity:1;paint-order:fill markers stroke"
       d="m -407.63623,-176.85562 c -0.33403,-2.08718 -22.91072,-277.98117 -22.91072,-279.97602 0,-1.11247 0.24306,-1.40499 1.15696,-1.39234 0.63634,0.009 49.56666,-4.80309 108.73408,-10.69311 59.16739,-5.89 107.68106,-10.60016 107.80814,-10.46705 0.12709,0.13314 -5.29567,68.22675 -12.05058,151.31915 -6.75489,83.09239 -12.2872,151.25567 -12.29399,151.47395 -0.007,0.21828 -2.75452,0.39688 -6.10605,0.39688 h -6.09371 l 0.41086,-2.6747 c 0.22597,-1.47108 0.54422,-4.7453 0.7072,-7.27604 0.316,-4.90642 3.00753,-37.3987 3.86597,-46.6701 0.28294,-3.05593 1.44167,-16.39093 2.57493,-29.63333 1.13326,-13.24239 2.29164,-26.45833 2.57419,-29.36875 0.85783,-8.83658 4.45642,-50.71869 6.91097,-80.43333 1.27418,-15.42521 2.45344,-29.23646 2.62057,-30.69167 0.16712,-1.4552 1.51445,-16.65996 2.99406,-33.78835 l 2.6902,-31.14254 -2.33856,0.29837 c -1.2862,0.1641 -45.26208,4.02625 -97.72416,8.58256 -52.46208,4.55631 -95.46108,8.35382 -95.55329,8.43893 -0.16239,0.14989 0.41003,7.63876 2.48645,32.52978 3.13253,37.55107 4.73092,57.10442 5.1475,62.97084 0.42924,6.0444 1.70707,21.51943 7.75595,93.92708 1.14271,13.67895 2.29482,27.72833 2.5602,31.22083 0.26539,3.4925 1.15106,14.80344 1.96816,25.13542 0.8171,10.33197 1.52439,21.22619 1.57176,24.20937 l 0.0861,5.42396 h -4.63899 -4.63898 z"
       id="path2063" />
    <path
       style="fill:none;stroke:#000000;stroke-width:0.1;stroke-linecap:butt;stroke-linejoin:miter;stroke-miterlimit:4;stroke-dasharray:none;stroke-opacity:1"
       d="m -141.87317,188.52601 c 0,0 1.19062,4.89479 0.26458,6.28385"
       id="path1669" />
    <path
       style="fill:none;stroke:#000000;stroke-width:0.1;stroke-linecap:butt;stroke-linejoin:miter;stroke-miterlimit:4;stroke-dasharray:none;stroke-opacity:1"
       d="m -141.87317,188.52601 21.89427,-1e-5"
       id="path1673" />
    <path
       style="fill:none;stroke:#000000;stroke-width:0.1;stroke-linecap:butt;stroke-linejoin:miter;stroke-miterlimit:4;stroke-dasharray:none;stroke-opacity:1"
       d="m -119.9789,188.526 c 0,0 1.19062,4.89479 0.26458,6.28385"
       id="path1669-0" />
    <path
       style="fill:none;stroke:#000000;stroke-width:0.1;stroke-linecap:butt;stroke-linejoin:miter;stroke-miterlimit:4;stroke-dasharray:none;stroke-opacity:1"
       d="m -141.60859,194.80986 21.89427,-10e-6"
       id="path1673-4" />
    <path
       style="fill:none;stroke:#000000;stroke-width:0.1;stroke-linecap:butt;stroke-linejoin:miter;stroke-miterlimit:4;stroke-dasharray:none;stroke-opacity:1"
       d="m -141.60859,194.80986 -9.09505,-6.08542"
       id="path1716" />
    <path
       style="fill:none;stroke:#000000;stroke-width:0.1;stroke-linecap:butt;stroke-linejoin:miter;stroke-miterlimit:4;stroke-dasharray:none;stroke-opacity:1"
       d="m -141.87317,188.52601 -9.09506,-6.08542"
       id="path1716-4" />
    <path
       style="fill:none;stroke:#000000;stroke-width:0.1;stroke-linecap:butt;stroke-linejoin:miter;stroke-miterlimit:4;stroke-dasharray:none;stroke-opacity:1"
       d="m -150.96823,182.44059 0.26459,6.28385"
       id="path1738" />
    <path
       style="fill:none;stroke:#000000;stroke-width:0.1;stroke-linecap:butt;stroke-linejoin:miter;stroke-miterlimit:4;stroke-dasharray:none;stroke-opacity:1"
       d="m -119.9789,188.526 -9.09505,-6.08542"
       id="path1716-4-5" />
    <path
       style="fill:none;stroke:#000000;stroke-width:0.1;stroke-linecap:butt;stroke-linejoin:miter;stroke-miterlimit:4;stroke-dasharray:none;stroke-opacity:1"
       d="m -150.96823,182.44059 21.89428,-10e-6"
       id="path1760" />
    <path
       style="fill:#00ffff;stroke-width:0.025;stroke-linecap:round;stroke-miterlimit:4;stroke-dasharray:none;paint-order:fill markers stroke"
       d="m -146.25984,185.50394 -4.41588,-2.96003 10.7861,-0.0167 10.7861,-0.0168 3.15825,2.10725 c 1.73703,1.15898 3.73639,2.49852 4.44302,2.97676 l 1.28477,0.86951 h -10.81324 -10.81325 z"
       id="path1762" />
    <path
       style="fill:#0000ff;stroke-width:0.025;stroke-linecap:round;stroke-miterlimit:4;stroke-dasharray:none;paint-order:fill markers stroke"
       d="m -141.47323,194.72282 c 0,-0.0138 0.0521,-0.14025 0.11576,-0.28112 0.0982,-0.21716 0.11539,-0.45735 0.11339,-1.57904 -0.002,-1.36576 -0.0662,-1.95262 -0.38248,-3.52227 l -0.14997,-0.74414 h 10.86473 10.86472 l 0.0653,0.24805 c 0.12122,0.46059 0.39856,2.16116 0.47577,2.91732 0.0967,0.94712 0.0452,2.24802 -0.10577,2.672 l -0.11189,0.3142 h -10.87477 c -5.98112,0 -10.87477,-0.0112 -10.87477,-0.025 z"
       id="path1764" />
    <path
       style="fill:#e3dedb;stroke-width:0.025;stroke-linecap:round;stroke-miterlimit:4;stroke-dasharray:none;paint-order:fill markers stroke"
       d="m -146.17254,191.67399 -4.4678,-3.0002 -0.11973,-2.98635 c -0.0658,-1.64249 -0.10377,-3.00231 -0.0843,-3.02182 0.0195,-0.0195 2.031,1.29947 4.46998,2.93105 l 4.43452,2.96651 0.10057,0.46302 c 0.18079,0.83233 0.35299,1.90332 0.43498,2.70524 0.13271,1.29814 0.005,2.85979 -0.23968,2.92623 -0.0334,0.009 -2.07128,-1.33357 -4.52857,-2.98368 z"
       id="path1766" />
    <path
       style="fill:none;stroke:#000000;stroke-width:0.264583px;stroke-linecap:butt;stroke-linejoin:miter;stroke-opacity:1"
       d="m -22.170007,248.45374 c 0,0 18.8959551,-1.68379 18.8959551,-0.93544 0,0.74836 0.561266,4.67722 -0.187088,4.49013 -0.748355,-0.18709 -18.6153241,1.21608 -18.7088671,0.28063 -0.09354,-0.93544 0,-3.83532 0,-3.83532 z"
       id="path1770" />
    <path
       style="fill:none;stroke:#000000;stroke-width:0.264583px;stroke-linecap:butt;stroke-linejoin:miter;stroke-opacity:1"
       d="m -22.170007,248.45374 -2.712787,-3.92886 18.0540581,-1.02898 3.274051,3.83531"
       id="path1794" />
    <path
       style="fill:none;stroke:#000000;stroke-width:0.264583px;stroke-linecap:butt;stroke-linejoin:miter;stroke-opacity:1"
       d="m -24.882794,244.52488 0.18709,4.95785 2.338607,2.61925"
       id="path1796" />
    <path
       style="fill:#0000ff;stroke-width:0.0499999;stroke-linecap:round;stroke-miterlimit:4;stroke-dasharray:none;paint-order:fill markers stroke"
       d="m -22.076673,252.11137 c -0.224263,-0.14227 -0.334145,-1.69027 -0.198588,-2.79773 l 0.105254,-0.8599 2.711979,-0.22159 c 8.378573,-0.68461 15.4023881,-1.01615 15.6831291,-0.74028 0.05399,0.0531 0.104366,1.00556 0.111945,2.11667 l 0.01378,2.0202 -2.050521,0.0927 c -1.127786,0.051 -3.90018,0.18495 -6.1608741,0.29766 -4.410646,0.2199 -9.936224,0.26979 -10.216103,0.0922 z"
       id="path1802" />
    <path
       style="fill:#00ffff;stroke-width:0.0499999;stroke-linecap:round;stroke-miterlimit:4;stroke-dasharray:none;paint-order:fill markers stroke"
       d="m -23.268914,246.54921 c -0.667796,-0.96212 -1.188109,-1.77537 -1.156248,-1.80723 0.06079,-0.0608 3.072611,-0.24566 11.330214,-0.69544 2.728516,-0.14862 5.2372629,-0.2968 5.574993,-0.32929 l 0.6140569,-0.0591 1.4790472,1.74493 1.4790473,1.74494 -1.630082,0.0282 c -2.8388773,0.0491 -13.2975514,0.7378 -15.8003424,1.04047 l -0.676511,0.0818 z"
       id="path1804" />
    <path
       style="fill:#00ffff;stroke-width:0.0499999;stroke-linecap:round;stroke-miterlimit:4;stroke-dasharray:none;paint-order:fill markers stroke"
       d="m -24.00901,250.38919 c -0.281588,-0.28837 -0.482211,-0.55407 -0.44583,-0.59045 0.03638,-0.0364 0.296534,0.16979 0.578122,0.45816 0.281586,0.28837 0.482208,0.55408 0.445828,0.59046 -0.03638,0.0364 -0.296534,-0.1698 -0.57812,-0.45817 z"
       id="path1806" />
    <path
       style="fill:#e3dbdb;stroke-width:0.0176777;stroke-linecap:round;stroke-miterlimit:4;stroke-dasharray:none;paint-order:fill markers stroke"
       d="m -23.462801,250.64277 -1.083151,-1.2118 -0.07485,-1.91211 c -0.04116,-1.05166 -0.07467,-2.03621 -0.07446,-2.18789 l 2.64e-4,-0.27577 0.964912,1.3983 c 0.530701,0.76907 1.063868,1.54564 1.184817,1.72572 l 0.219906,0.3274 -0.02721,1.67398 -0.0272,1.67398 z"
       id="path1812" />
    <path
       style="fill:none;stroke:#000000;stroke-width:0.264583px;stroke-linecap:butt;stroke-linejoin:miter;stroke-opacity:1"
       d="m -73.525847,231.98995 c 0.589965,5.24126 2.908106,-4.84785 3.648231,-3.3676 0.651451,1.30291 -1.063382,7.05022 -1.964431,7.95127"
       id="path1814" />
    <path
       style="fill:none;stroke:#000000;stroke-width:0.264583px;stroke-linecap:butt;stroke-linejoin:miter;stroke-opacity:1"
       d="m -17.305702,257.24691 c -1.185668,-1.99214 4.555744,-2.83048 4.396584,-1.30962 -0.283118,2.70535 -2.86475,4.73607 -3.461141,7.39 -0.134838,0.60004 1.008663,0.73553 1.590254,0.93545 1.244962,0.42795 2.341813,-0.0943 3.461141,-0.37418 0.421624,-0.1054 0.627935,-0.0267 1.028987,-0.18709"
       id="path1816" />
    <path
       style="fill:none;stroke:#000000;stroke-width:0.264583px;stroke-linecap:butt;stroke-linejoin:miter;stroke-opacity:1"
       d="m -48.549509,244.52489 c -2.794799,1.34282 10.254004,-1.34641 9.822156,1.96443 -0.542991,4.16293 -2.690201,1.75927 -4.115951,2.89987 -0.08779,0.0702 0.280633,0.0747 0.280633,0.18709 0,0.47752 0.04735,1.05388 -0.18709,1.49671 -0.155088,0.29294 -0.449421,0.4882 -0.654809,0.74836 -0.799296,1.01244 -1.517568,2.17237 -2.432153,3.08696"
       id="path1818" />
    <path
       style="fill:none;stroke:#000000;stroke-width:0.305973px;stroke-linecap:butt;stroke-linejoin:miter;stroke-opacity:1"
       d="m -59.631418,226.93583 c 0,0 5.799749,-0.87571 5.986838,0.12504"
       id="path1848" />
    <path
       style="fill:none;stroke:#000000;stroke-width:0.305973px;stroke-linecap:butt;stroke-linejoin:miter;stroke-opacity:1"
       d="m -59.631417,245.07539 c 0,0 5.799749,-0.8757 5.986838,0.12504"
       id="path1848-4" />
    <rect
       style="fill:#e3dbdb;stroke:#000000;stroke-width:0.235;stroke-linecap:round;stroke-miterlimit:4;stroke-dasharray:none;stroke-opacity:1;paint-order:fill markers stroke"
       id="rect1872"
       width="6.8130207"
       height="18.851562"
       x="-46.065796"
       y="232.85626" />
    <path
       style="fill:none;stroke:#000000;stroke-width:0.305973px;stroke-linecap:butt;stroke-linejoin:miter;stroke-opacity:1"
       d="m -59.631418,226.93583 c 0,0 3e-6,18.13956 3e-6,18.13956"
       id="path1894" />
    <path
       style="fill:none;stroke:#000000;stroke-width:0.305973px;stroke-linecap:butt;stroke-linejoin:miter;stroke-opacity:1"
       d="m -53.64458,227.06087 v 18.13956"
       id="path1896" />
    <path
       style="fill:#ff0000;stroke:#000000;stroke-width:0.235;stroke-linecap:round;stroke-miterlimit:4;stroke-dasharray:none;stroke-opacity:1;paint-order:fill markers stroke"
       d="m -35.542963,246.70773 v -8.88259 l 0.843359,-0.11121 c 1.262319,-0.16646 4.001564,-0.22627 4.464844,-0.0975 l 0.380338,0.10572 v 8.84271 8.84271 l -0.347265,-0.0694 c -0.783151,-0.15649 -4.680971,-0.002 -5.225521,0.20766 -0.109696,0.0421 -0.115755,-0.42053 -0.115755,-8.83811 z"
       id="path1898" />
    <path
       style="fill:#ff7f2a;stroke-width:0.025;stroke-linecap:round;stroke-miterlimit:4;stroke-dasharray:none;paint-order:fill markers stroke"
       d="m -61.01853,255.68198 v -6.64199 l 0.84336,-0.0831 c 1.26232,-0.12447 4.00156,-0.1692 4.46484,-0.0729 l 0.38034,0.079 v 6.61218 6.61217 l -0.34726,-0.0519 c -0.78316,-0.11702 -4.68098,-0.001 -5.22553,0.15528 -0.10969,0.0315 -0.11575,-0.31445 -0.11575,-6.60874 z"
       id="path1898-0"
       inkscape:transform-center-x="6.1515625"
       inkscape:transform-center-y="10.252604" />
    <path
       style="fill:#d500ff;fill-opacity:1;stroke:#000000;stroke-width:0.1;stroke-linecap:butt;stroke-linejoin:miter;stroke-miterlimit:4;stroke-dasharray:none;stroke-opacity:1"
       d="m -73.987201,246.11261 -3.768751,0.83601 0.411458,12.28745 3.311245,0.2605 z"
       id="path1920"
       sodipodi:nodetypes="ccccc" />
    <path
       style="fill:#ff0000;fill-opacity:1;stroke:#000000;stroke-width:0.1;stroke-linecap:butt;stroke-linejoin:miter;stroke-miterlimit:4;stroke-dasharray:none;stroke-opacity:1"
       d="m -87.675916,242.61341 4.729318,-0.39817 0.09577,-12.63388 c 0,0 -4.431816,-0.16415 -4.59718,-0.16411 -0.165365,5e-5 -0.227904,13.19616 -0.227904,13.19616 z"
       id="path1924" />
    <path
       style="fill:#7844eb;fill-opacity:1;stroke:#000000;stroke-width:0.1;stroke-linecap:butt;stroke-linejoin:miter;stroke-miterlimit:4;stroke-dasharray:none;stroke-opacity:1"
       d="m -86.848877,244.16802 3.638002,-0.0671 0.202089,13.3614 -4.499808,0.20437 z"
       id="path1926"
       sodipodi:nodetypes="ccccc" />
    <path
       style="fill:#7844eb;stroke:#000000;stroke-width:0.1;stroke-linecap:butt;stroke-linejoin:miter;stroke-opacity:1;fill-opacity:1;stroke-miterlimit:4;stroke-dasharray:none"
       d="m -87.766818,260.87238 4.209571,0.27948 0.09715,13.18973 -4.256254,0.0479 z"
       id="path1928" />
    <path
       style="fill:#7844eb;stroke:#000000;stroke-width:0.1;stroke-linecap:butt;stroke-linejoin:miter;stroke-opacity:1;stroke-miterlimit:4;stroke-dasharray:none;fill-opacity:1"
       d="m -87.699299,278.82868 4.464971,0.46178 0.03725,15.27969 -5.192419,0.10064 z"
       id="path1930" />
    <path
       style="fill:#d00000;stroke:none;stroke-width:0.1;stroke-linecap:butt;stroke-linejoin:miter;stroke-opacity:1;stroke-miterlimit:4;stroke-dasharray:none;fill-opacity:1"
       d="m -82.850828,229.58136 c 0,0 -1.202692,12.67468 -1.810705,12.76839 -0.608012,0.0937 1.714937,-0.13451 1.714937,-0.13451 z"
       id="path1932" />
    <path
       style="fill:#ff0000;fill-opacity:1;stroke:#000000;stroke-width:0.1;stroke-linecap:butt;stroke-linejoin:miter;stroke-miterlimit:4;stroke-dasharray:none;stroke-opacity:1"
       d="m -94.555296,242.894 4.729318,-0.39817 0.09577,-12.63388 c 0,0 -4.431816,-0.16415 -4.59718,-0.16411 -0.165365,5e-5 -0.227904,13.19616 -0.227904,13.19616 z"
       id="path1924-7" />
    <path
       style="fill:#6f00eb;stroke:none;stroke-width:0.1;stroke-linecap:butt;stroke-linejoin:miter;stroke-opacity:1;stroke-miterlimit:4;stroke-dasharray:none;fill-opacity:1"
       d="m -83.210875,244.10092 c 0,0 -0.55785,13.37938 -0.768324,13.37944 -0.210476,6e-5 0.970415,-0.018 0.970415,-0.018 z"
       id="path2016" />
    <path
       style="fill:#7844eb;fill-opacity:1;stroke:#000000;stroke-width:0.1;stroke-linecap:butt;stroke-linejoin:miter;stroke-miterlimit:4;stroke-dasharray:none;stroke-opacity:1"
       d="m -93.474668,244.42835 3.638002,-0.0671 0.202089,13.3614 -4.499808,0.20437 z"
       id="path1926-1"
       sodipodi:nodetypes="ccccc" />
    <path
       style="fill:#6f00eb;fill-opacity:1;stroke:none;stroke-width:0.0082271;stroke-linecap:round;stroke-miterlimit:4;stroke-dasharray:none;stroke-opacity:1;paint-order:fill markers stroke"
       d="m -84.280031,274.13217 c 0.04582,-0.24168 0.133326,-0.93307 0.192937,-1.52437 0.198401,-1.96804 0.393371,-5.70835 0.527154,-10.11289 0.01801,-0.59308 0.03508,-1.15045 0.03793,-1.2386 0.0028,-0.0881 0.0067,0.12823 0.0086,0.48086 0.008,1.48117 0.0525,11.6684 0.0529,12.11619 l 3.68e-4,0.48815 -0.429885,2e-4 -0.429886,2.2e-4 z"
       id="path2046" />
    <path
       style="fill:#7844eb;fill-opacity:1;stroke:#000000;stroke-width:0.1;stroke-linecap:butt;stroke-linejoin:miter;stroke-miterlimit:4;stroke-dasharray:none;stroke-opacity:1"
       d="m -94.254606,260.49724 4.209571,0.27948 0.09715,13.18973 -4.256254,0.0479 z"
       id="path1928-8" />
    <g
       id="bibliotheque">
      <g
         id="g1004"
         transform="matrix(0.84330948,0,0,0.84330948,158.2816,4.177471)"
         style="opacity:0.999">
        <g
           id="g1022"
           transform="translate(-94.123216,11.60853)">
          <path
             style="fill:#784421;fill-opacity:1;stroke:none;stroke-width:0.00482642;stroke-linecap:round;stroke-miterlimit:4;stroke-dasharray:none;stroke-opacity:1;paint-order:fill markers stroke"
             d="m -80.298875,134.76827 c -0.09315,-0.82792 -1.219941,-14.25942 -1.219941,-14.54189 0,-0.16482 0.215467,-0.22127 1.117372,-0.29275 0.614554,-0.0487 16.023871,-1.35036 34.242935,-2.89257 18.219056,-1.54221 33.144622,-2.78497 33.167921,-2.76167 0.03509,0.0351 -1.493409,17.61166 -1.536151,17.6646 -0.01642,0.0203 -65.172401,3.49959 -65.482417,3.4967 -0.163412,-10e-4 -0.2322,-0.16117 -0.289719,-0.67242 z"
             id="path1911-7" />
          <path
             style="fill:#784421;fill-opacity:1;stroke:none;stroke-width:0.00558143;stroke-linecap:round;stroke-miterlimit:4;stroke-dasharray:none;stroke-opacity:1;paint-order:fill markers stroke"
             d="m -40.377575,172.57114 c -0.0022,-4.87574 0.452553,-41.03264 0.517117,-41.10395 0.08825,-0.0974 24.886899,-0.33707 24.975148,-0.24133 0.06295,0.0683 -3.270345,41.39009 -3.464063,42.94288 l -0.07939,0.63638 -4.416741,0.0905 c -2.429209,0.0498 -7.367412,0.12688 -10.973795,0.17137 l -6.557053,0.0809 z"
             id="path1913-6" />
          <path
             style="fill:#784421;fill-opacity:1;stroke:none;stroke-width:0.00686786;stroke-linecap:round;stroke-miterlimit:4;stroke-dasharray:none;stroke-opacity:1;paint-order:fill markers stroke"
             d="m -78.533378,155.79292 c -0.0062,-0.0312 -0.352866,-6.3175 -0.770445,-13.9695 l -0.759221,-13.91272 h 0.370683 c 0.203876,0 10.468565,-0.87334 22.810414,-1.94169 12.341846,-1.06835 22.47083,-1.89384 22.50885,-1.83443 0.03804,0.0594 0.021,7.15153 -0.03788,15.76028 l -0.106992,15.65231 -15.920867,0.15088 c -16.362547,0.15508 -28.07478,0.19432 -28.094545,0.0941 z"
             id="path1915-3" />
          <path
             style="fill:#784421;fill-opacity:1;stroke:none;stroke-width:0.00183095;stroke-linecap:round;stroke-miterlimit:4;stroke-dasharray:none;stroke-opacity:1;paint-order:fill markers stroke"
             d="m -77.078324,173.24241 c -0.02311,-0.11285 -1.482833,-17.48322 -1.481844,-17.6336 0.0011,-0.0799 0.18928,-0.0848 3.282632,-0.0846 3.530917,0 8.367476,-0.0394 26.414076,-0.21608 6.354638,-0.0622 11.560554,-0.10687 11.568691,-0.0994 0.03066,0.0286 -0.220147,17.66169 -0.251647,17.69318 -0.02607,0.0261 -35.605379,0.43665 -38.723291,0.44687 -0.777458,0.002 -0.786546,0.001 -0.808617,-0.10644 z"
             id="path1921-1" />
          <path
             style="fill:#784421;fill-opacity:1;stroke:none;stroke-width:0.00577849;stroke-linecap:round;stroke-miterlimit:4;stroke-dasharray:none;stroke-opacity:1;paint-order:fill markers stroke"
             d="m -20.775244,194.6321 c -0.42141,-0.0321 -12.259142,-0.59187 -26.306074,-1.24409 -30.398038,-1.41142 -28.668506,-1.30595 -28.668506,-1.74827 0,-0.18547 -0.261292,-4.75868 -0.580655,-10.16268 -0.319354,-5.40403 -0.563581,-9.84894 -0.542722,-9.87758 0.02087,-0.0287 5.094824,-0.14688 11.27548,-0.26273 6.180646,-0.1158 19.340066,-0.36326 29.243155,-0.54979 9.903085,-0.18652 18.017275,-0.32314 18.03153,-0.30363 0.02846,0.039 -1.308445,21.76756 -1.434541,23.31522 -0.04307,0.52856 -0.117264,0.94545 -0.164886,0.92641 -0.04762,-0.0191 -0.431375,-0.0608 -0.852781,-0.0929 z"
             id="path1923-2" />
          <path
             style="fill:#784421;fill-opacity:1;stroke:none;stroke-width:0.00513402;stroke-linecap:round;stroke-miterlimit:4;stroke-dasharray:none;stroke-opacity:1;paint-order:fill markers stroke"
             d="m -74.13626,207.80016 c -0.235576,-2.35295 -1.253224,-16.89223 -1.187542,-16.96656 0.06726,-0.0761 55.139133,1.51155 55.209915,1.59164 0.0142,0.0161 -0.242791,3.45485 -0.571112,7.64172 l -0.596951,7.61248 -0.640546,0.0725 c -0.352297,0.0399 -3.599972,0.10987 -7.217062,0.15547 -3.617084,0.0456 -14.104387,0.21011 -23.305128,0.36559 -9.200741,0.15549 -17.828195,0.28338 -19.172122,0.2842 l -2.443494,0.001 z"
             id="path1925-8" />
          <path
             style="fill:#a05a2c;fill-opacity:1;stroke:none;stroke-width:0.0034128;stroke-linecap:round;stroke-miterlimit:4;stroke-dasharray:none;stroke-opacity:1;paint-order:fill markers stroke"
             d="m -73.996028,209.54428 c -0.03271,-0.38699 -0.05948,-0.81157 -0.05948,-0.94351 v -0.23989 l 9.132549,-0.11139 c 5.022902,-0.0613 11.636035,-0.14941 14.695852,-0.1959 3.059816,-0.0465 10.15491,-0.14523 15.766873,-0.21942 5.611966,-0.0742 10.869414,-0.16026 11.683217,-0.19124 l 1.479645,-0.0563 -0.06071,0.84382 c -0.03338,0.4641 -0.08329,1.01058 -0.110888,1.21439 l -0.05018,0.37056 -20.918073,0.0586 c -11.504942,0.0322 -23.298862,0.0845 -26.208704,0.11627 l -5.290624,0.0577 z"
             id="path1933-8" />
          <path
             style="fill:#a05a2c;fill-opacity:1;stroke:none;stroke-width:0.0034128;stroke-linecap:round;stroke-miterlimit:4;stroke-dasharray:none;stroke-opacity:1;paint-order:fill markers stroke"
             d="m -20.136026,194.41448 c -0.0185,-0.15651 -0.750967,-0.18219 -17.665136,-0.61927 -23.184924,-0.59912 -29.850249,-0.76108 -33.635666,-0.81733 -1.862378,-0.0277 -3.497884,-0.0677 -3.634458,-0.0889 -0.231793,-0.036 -0.249094,-0.0162 -0.260038,0.2978 -0.01327,0.38055 -0.331155,-2.96099 -0.342271,-3.59782 l -0.0072,-0.41259 0.609506,0.0696 c 0.709049,0.081 5.407107,0.25984 15.102189,0.57489 3.79925,0.12346 14.360569,0.47026 23.469596,0.77067 13.464674,0.44406 16.576769,0.52439 16.641527,0.42958 0.04708,-0.0689 0.05635,0.16037 0.02269,0.56061 -0.09376,1.11444 -0.287791,2.94211 -0.300729,2.8327 z"
             id="path1935-0" />
          <path
             style="fill:#a05a2c;fill-opacity:1;stroke:none;stroke-width:0.0034128;stroke-linecap:round;stroke-miterlimit:4;stroke-dasharray:none;stroke-opacity:1;paint-order:fill markers stroke"
             d="m -77.032196,173.81079 c -0.06782,-0.88297 -0.10488,-1.62385 -0.08233,-1.64638 0.03892,-0.0389 4.921291,-0.10167 24.36407,-0.31309 4.693192,-0.051 9.393481,-0.11736 10.4451,-0.14738 l 1.91202,-0.0546 0.05015,-0.64489 c 0.07022,-0.90293 0.259731,-15.68405 0.201833,-15.74195 -0.02604,-0.026 -7.556774,0.0198 -16.734968,0.10175 -9.178193,0.082 -17.811128,0.15753 -19.184312,0.16784 l -2.496697,0.0187 -0.05131,-0.49663 c -0.02822,-0.27315 -0.0788,-0.79753 -0.112401,-1.1653 l -0.06109,-0.66868 0.71286,0.0565 c 0.927216,0.0735 37.896678,-0.1157 37.974596,-0.19431 0.03266,-0.0329 0.08884,-4.01156 0.124864,-8.8414 l 0.06551,-8.78154 -0.260309,0.0411 c -0.143167,0.0226 -0.910437,0.0649 -1.705053,0.0939 -1.308548,0.0477 -15.189279,0.78638 -25.463779,1.35505 -6.00789,0.33252 -12.42135,0.67736 -12.597628,0.67736 -0.127455,0 -0.164818,-0.12253 -0.2134,-0.6998 -0.120021,-1.42624 -0.142197,-1.9623 -0.07191,-1.73822 0.06703,0.21372 0.101784,0.22447 0.652702,0.20175 0.74693,-0.0308 5.502264,-0.26902 7.670233,-0.38424 0.918774,-0.0488 5.896401,-0.31263 11.061394,-0.58621 11.361587,-0.60181 18.057975,-0.95943 31.287944,-1.67096 13.413782,-0.7214 13.194513,-0.70941 14.178407,-0.77449 l 0.85959,-0.0568 -0.18236,2.10955 c -0.100302,1.16027 -0.194748,1.91656 -0.209884,1.68066 l -0.02751,-0.42891 -6.157831,0.005 c -6.289978,0.006 -16.199234,0.11835 -16.266043,0.18516 -0.09559,0.0956 -0.561846,36.07879 -0.468704,36.17193 0.0646,0.0646 15.995592,-0.12193 18.315404,-0.21445 1.192348,-0.0476 1.423675,-0.0795 1.455349,-0.20091 0.02072,-0.0794 0.02433,0.0182 0.008,0.21682 -0.01631,0.19866 -0.08071,0.99101 -0.143123,1.7608 -0.06241,0.76978 -0.127928,1.32849 -0.145593,1.24158 -0.03946,-0.19413 -0.850894,-0.19954 -10.177301,-0.068 -3.476439,0.049 -12.720604,0.17073 -20.54259,0.27043 -7.821986,0.0997 -16.855036,0.22194 -20.07345,0.27162 -3.218414,0.0497 -6.273273,0.0903 -6.788572,0.0903 -0.902285,0 -0.93806,0.008 -0.967741,0.20317 -0.01696,0.11174 -0.08632,-0.51927 -0.154146,-1.40223 z"
             id="path2049-7" />
          <path
             style="fill:#d38d5f;fill-opacity:1;stroke:none;stroke-width:0.00672844;stroke-linecap:round;stroke-miterlimit:4;stroke-dasharray:none;stroke-opacity:1;paint-order:fill markers stroke"
             d="m -76.221841,215.19386 c -0.113998,-0.71231 -7.818979,-94.86951 -7.818979,-95.55032 0,-0.37966 0.08295,-0.47949 0.394848,-0.47517 0.21717,0.003 16.916127,-1.6392 37.108805,-3.64935 20.192668,-2.01014 36.7494297,-3.61763 36.7927997,-3.5722 0.04337,0.0454 -1.8073077,23.28445 -4.1126257,51.64225 -2.305311,28.3578 -4.19338,51.62059 -4.195697,51.69509 -0.0024,0.0745 -0.940064,0.13544 -2.083875,0.13544 h -2.079664 l 0.140219,-0.91282 c 0.07712,-0.50205 0.185731,-1.61948 0.241353,-2.48317 0.107845,-1.67446 1.026411,-12.76344 1.31938,-15.92759 0.09656,-1.04293 0.492013,-5.5939 0.878773,-10.11327 0.386759,-4.51937 0.782091,-9.02971 0.87852,-10.02298 0.292761,-3.01575 1.520889,-17.30929 2.358578,-27.45031 0.434853,-5.26432 0.837311,-9.97783 0.89435,-10.47447 0.05703,-0.49663 0.516852,-5.68571 1.021813,-11.5313 l 0.918113,-10.62833 -0.798105,0.10182 c -0.438955,0.056 -15.447059,1.37408 -33.351335,2.92906 -17.904278,1.55498 -32.578992,2.851 -32.610461,2.88004 -0.05542,0.0512 0.139935,2.60696 0.848576,11.10178 1.069071,12.81544 1.61457,19.48862 1.756741,21.49071 0.146491,2.06283 0.582589,7.34416 2.646953,32.05547 0.389985,4.66835 0.783177,9.46313 0.873746,10.65505 0.09057,1.19192 0.392834,5.05212 0.671695,8.57823 0.27886,3.52609 0.520244,7.24408 0.536411,8.26218 l 0.02938,1.85109 h -1.583196 -1.583193 z"
             id="path2063-9" />
          <path
             style="fill:#502d16;stroke-width:0.0944882;stroke-linecap:round;paint-order:fill markers stroke"
             d="m -277.09499,786.77062 c -0.0714,-0.46873 -0.70433,-8.38973 -1.40648,-17.60223 -0.70215,-9.2125 -1.66467,-21.57831 -2.13894,-27.47957 -0.47427,-5.90126 -0.86231,-11.16924 -0.86231,-11.70662 v -0.97705 l 5.4375,0.14937 c 2.99063,0.0822 11.23125,0.26216 18.3125,0.40001 13.26531,0.25824 21.37489,0.45406 72,1.73854 77.00184,1.95372 100.72473,2.60462 105.961873,2.90732 l 2.836872,0.16397 -0.146425,1.27701 c -0.08054,0.70236 -0.329392,3.41452 -0.553015,6.02702 -0.223625,2.6125 -0.421825,4.76323 -0.440447,4.77941 -0.01862,0.0162 -9.877608,0.16052 -21.908858,0.32076 -12.03125,0.16024 -29.525,0.40022 -38.875,0.5333 -9.35,0.13307 -37.58562,0.52685 -62.74583,0.87507 -25.1602,0.34821 -45.81518,0.71374 -45.89996,0.81228 -0.0848,0.0986 -3.33881,8.72918 -7.23118,19.17918 -3.89238,10.45 -7.09493,19.02628 -7.11679,19.05842 -0.0219,0.0321 -3.42688,0.13438 -7.56671,0.22723 l -7.52696,0.16882 z"
             id="path954"
             transform="scale(0.26458333)" />
          <path
             style="fill:#502d16;stroke-width:0.0944882;stroke-linecap:round;paint-order:fill markers stroke"
             d="m -266.17183,716.19618 c -1.2375,-0.0903 -5.45545,-0.29574 -9.37324,-0.45658 -3.91778,-0.16083 -7.14971,-0.31889 -7.18206,-0.35125 -0.12694,-0.12694 -4.53317,-53.77288 -4.4255,-53.88055 0.0631,-0.0631 10.88462,-0.2567 24.04778,-0.43017 13.16316,-0.17348 36.81427,-0.49086 52.55802,-0.70529 15.74375,-0.21443 37.11875,-0.50397 47.5,-0.64342 10.38125,-0.13945 31.08125,-0.41921 46,-0.62169 14.91875,-0.20248 31.484378,-0.36899 36.812503,-0.37002 l 9.6875,-0.002 v 0.90534 c 0,0.96463 -0.742488,9.42048 -0.835343,9.51334 -0.145992,0.14599 -10.688477,0.64447 -94.38393,4.46274 -49.41435,2.25434 -89.87461,4.13137 -89.91169,4.17119 -0.0371,0.0398 -1.90715,8.73489 -4.15572,19.32239 l -4.08832,19.25 z"
             id="path978"
             transform="scale(0.26458333)" />
          <path
             style="fill:#502d16;stroke-width:0.0668132;stroke-linecap:round;paint-order:fill markers stroke"
             d="m -284.96323,650.86572 c -0.019,-0.1583 -0.47412,-0.22097 -1.60475,-0.22097 h -1.57827 l -0.10715,-0.92808 c -0.10674,-0.92457 -4.21791,-50.48922 -4.79498,-57.80869 -0.16683,-2.11619 -0.26479,-3.88616 -0.21767,-3.93327 0.12056,-0.12057 9.41607,-0.24172 34.43929,-0.44887 11.91033,-0.0986 35.13878,-0.29521 51.61879,-0.43692 16.48001,-0.1417 35.7111,-0.2583 42.73577,-0.2591 l 12.77211,-0.001 v 1.23744 c 0,0.79688 -0.0706,1.23743 -0.19836,1.23743 -0.22544,0 0.85266,-0.087 -72.0628,5.81735 -29.77785,2.41128 -54.17535,4.41795 -54.21665,4.45926 -0.0413,0.0413 -1.54755,11.4086 -3.34719,25.26064 -1.79964,13.85205 -3.30348,25.4242 -3.34186,25.71588 -0.0384,0.29168 -0.0817,0.43089 -0.0963,0.30936 z"
             id="path980"
             transform="scale(0.26458333)" />
          <path
             style="fill:#502d16;stroke-width:0.0944882;stroke-linecap:round;paint-order:fill markers stroke"
             d="m -142.35371,578.22477 c 0.0626,-3.3 0.23006,-14.71875 0.37202,-25.375 0.29929,-22.46579 0.65915,-40.75892 0.80465,-40.90442 0.245,-0.245 33.27871,-0.58545 57.276229,-0.59029 l 26.222323,-0.005 -0.146117,1.23374 c -0.09978,0.84251 -0.05137,1.27227 0.152677,1.35526 0.164338,0.0668 0.07347,0.13041 -0.201932,0.14127 -0.527423,0.0208 -71.09103,20.13525 -71.2126,20.29946 -0.0388,0.0524 -2.92085,10.78277 -6.40457,23.84527 -3.48372,13.0625 -6.47861,24.25625 -6.65531,24.875 -0.27714,0.97045 -0.30563,0.30073 -0.20737,-4.875 z"
             id="path982"
             transform="scale(0.26458333)" />
          <path
             style="fill:#502d16;stroke-width:0.0472441;stroke-linecap:round;paint-order:fill markers stroke"
             d="m -295.88275,556.23643 c -0.26227,-3.21664 -1.03536,-12.58987 -1.71797,-20.82941 -0.68261,-8.23953 -1.2411,-15.08074 -1.2411,-15.20269 0,-0.19574 0.17935,-0.23134 1.53125,-0.30392 0.84218,-0.0452 2.51562,-0.13632 3.71875,-0.20246 1.20312,-0.0661 3.79062,-0.20532 5.75,-0.30928 6.41078,-0.34014 22.11194,-1.19398 31.0625,-1.68922 21.29737,-1.17838 57.26113,-3.11471 76.5625,-4.1222 7.87187,-0.4109 15.40937,-0.80493 16.75,-0.87563 1.34062,-0.0707 4.35,-0.21468 6.6875,-0.31996 2.3375,-0.10529 4.5875,-0.24494 5,-0.31035 0.4125,-0.0654 0.79218,-0.11935 0.84375,-0.11987 0.0516,-5.2e-4 0.0937,1.34532 0.0937,2.99076 v 2.99169 l 0.34375,0.0521 c 0.18906,0.0286 -0.0781,0.0607 -0.59375,0.0712 -0.51563,0.0105 -19.1625,0.86131 -41.4375,1.89066 -22.275,1.02935 -53.52188,2.47114 -69.4375,3.20398 -15.91563,0.73285 -28.95502,1.34706 -28.97643,1.36492 -0.0214,0.0179 -0.99514,8.37745 -2.16387,18.57688 -1.16872,10.19942 -2.16406,18.64495 -2.21186,18.76784 -0.0478,0.12288 -0.3015,-2.40837 -0.56377,-5.625 z"
             id="path984"
             transform="scale(0.26458333)" />
          <path
             style="fill:#502d16;stroke-width:0.0944882;stroke-linecap:round;paint-order:fill markers stroke"
             d="m -301.74659,484.98878 c -1.56741,-19.29106 -1.90302,-24.29186 -1.64536,-24.5172 0.12458,-0.10894 2.98276,-0.44269 6.35151,-0.74166 3.36875,-0.29897 11.75,-1.04582 18.625,-1.65967 14.37143,-1.28319 62.37475,-5.48209 151.5,-13.25187 59.066838,-5.14934 74.755296,-6.55572 75.312496,-6.75132 0.361525,-0.12691 0.41125,0.58146 0.0778,1.10841 -0.17765,0.28075 -26.91548,3.12115 -122.906936,13.0566 -67.47394,6.98379 -122.73188,12.74978 -122.79541,12.81331 -0.0635,0.0635 -0.83018,7.50518 -1.70365,16.53699 -0.87348,9.03181 -1.62348,16.45681 -1.66667,16.5 -0.0432,0.0432 -0.56014,-5.84893 -1.14878,-13.09359 z"
             id="path986"
             transform="scale(0.26458333)" />
        </g>
      </g>
      <path
         style="opacity:0.999;fill:#502d16;stroke-width:0.0944882;stroke-linecap:round;paint-order:fill markers stroke"
         d="m 177.27069,735.33004 c -27.225,-1.41063 -63.52418,-3.28024 -80.664852,-4.15469 l -31.164845,-1.58992 -0.156515,-2.50223 c -0.08608,-1.37623 -0.180338,-2.89598 -0.209454,-3.37723 l -0.05294,-0.875 16.7493,-0.15105 c 9.212116,-0.0831 46.131576,-0.24127 82.043256,-0.35155 l 65.29395,-0.20052 -0.10776,0.97656 c -0.0593,0.53711 -0.28231,3.22656 -0.49567,5.97656 -0.21336,2.75 -0.4918,5.73125 -0.61875,6.625 -0.12695,0.89375 -0.23305,1.76562 -0.23577,1.9375 -0.003,0.17187 -0.20183,0.29874 -0.44245,0.28192 -0.24063,-0.0168 -22.7125,-1.18472 -49.9375,-2.59535 z"
         id="path1086"
         transform="scale(0.26458333)" />
      <path
         style="opacity:0.999;fill:#502d16;stroke-width:0.133626;stroke-linecap:round;paint-order:fill markers stroke"
         d="M 39.252036,737.10801 C 31.279407,735.6814 23.28468,734.25082 21.485978,733.92893 l -3.270369,-0.58526 v -13.7559 -13.7559 h 17.147339 c 16.320536,0 17.14734,0.0309 17.14734,0.64083 0,0.90002 2.403286,29.57607 2.650087,31.62091 0.190629,1.57941 0.154613,1.67726 -0.604979,1.6438 -0.444219,-0.0196 -7.330732,-1.2028 -15.30336,-2.6294 z"
         id="path1088"
         transform="scale(0.26458333)" />
    </g>
    <g
       id="ombres_I">
      <path
         style="opacity:0.999;fill:#deaa87;stroke-width:0.377953;stroke-linecap:round;paint-order:fill markers stroke"
         d="m 631.5542,450.93502 -143,-73.89176 -0.66239,-4.79904 c -0.36432,-2.63948 -0.70182,-12.95645 -0.75,-22.9266 -0.0675,-13.96704 -0.39929,-18.38623 -1.4456,-19.2546 -3.5761,-2.96789 -28.83067,-7.11785 -43.31568,-7.11785 h -5.32633 v -7 -7 h 169 169 v 108 c 0,59.4 -0.1125,107.97336 -0.25,107.9408 -0.1375,-0.0325 -64.6,-33.31048 -143.25,-73.95095 z"
         id="path1076"
         transform="scale(0.26458333)" />
      <path
         style="opacity:0.999;fill:#deaa87;stroke-width:0.377953;stroke-linecap:round;paint-order:fill markers stroke"
         d="m 18.054203,417.44517 v -108.5 h 207.999997 208 l -0.011,3.25 c -0.006,1.7875 -0.27908,4.87062 -0.60672,6.85138 l -0.59572,3.60138 -12.64328,0.65178 c -19.65949,1.01346 -33.06414,3.78495 -35.89328,7.42114 -0.91428,1.17509 -1.25,7.5732 -1.25,23.82213 v 22.21556 l -7.25,2.99842 c -3.9875,1.64913 -28.85,11.86122 -55.25,22.69353 -26.4,10.83231 -49.50022,20.31781 -51.33382,21.07889 l -3.33382,1.38378 0.70131,-7.48399 c 0.67083,-7.15883 0.61006,-7.484 -1.39876,-7.484 -4.85675,0 -234.063616,22.59066 -234.576081,23.11986 -0.202471,0.20907 1.150763,18.83014 3.007186,41.38014 1.856424,22.55 3.388517,41.72583 3.404652,42.61296 0.01988,1.09308 -2.790902,2.79 -8.720664,5.2648 -4.8125,2.00851 -9.0875,3.64518 -9.5,3.63704 -0.4125,-0.008 -0.75,-48.8398 -0.75,-108.5148 z"
         id="path1078"
         transform="scale(0.26458333)" />
      <path
         style="opacity:0.999;fill:#deaa87;fill-opacity:1;stroke:none;stroke-width:0.267253;stroke-linecap:round;stroke-miterlimit:4;stroke-dasharray:none;stroke-opacity:1;paint-order:fill markers stroke"
         d="m 18.242959,563.45019 c 0.0064,-23.11899 0.269403,-39.01283 0.636102,-38.4337 0.518244,0.81847 1.454431,0.65761 5.46925,-0.93978 2.664187,-1.06 6.515941,-2.82689 8.559453,-3.92641 3.699116,-1.99032 3.716816,-1.99241 4.019115,-0.47443 0.167,0.83858 1.609185,18.07099 3.204856,38.29424 1.595671,20.22326 3.0897,38.59919 3.320065,40.83542 l 0.418845,4.06586 H 31.051388 18.232132 Z"
         id="path1195"
         transform="scale(0.26458333)" />
    </g>
    <path
       sodipodi:type="star"
       style="opacity:0.999;fill:#916f6f;fill-opacity:1;stroke:none;stroke-width:0.290625;stroke-linecap:round;stroke-miterlimit:4;stroke-dasharray:none;stroke-opacity:1;paint-order:fill markers stroke"
       id="path1181"
       sodipodi:sides="5"
       sodipodi:cx="35.639631"
       sodipodi:cy="98.290079"
       sodipodi:r1="9.460537"
       sodipodi:r2="7.6537342"
       sodipodi:arg1="0.44565469"
       sodipodi:arg2="1.0739732"
       inkscape:flatsided="true"
       inkscape:rounded="0"
       inkscape:randomized="0"
       d="m 44.176143,102.36803 -9.776949,5.30091 -8.062709,-7.66036 4.79392,-10.035272 11.025515,1.458219 z"
       inkscape:transform-center-x="0.38331442"
       inkscape:transform-center-y="0.53104729" />
    <path
       sodipodi:type="star"
       style="opacity:0.999;fill:#c8b7b7;fill-opacity:1;stroke:none;stroke-width:0.499999;stroke-linecap:round;stroke-miterlimit:4;stroke-dasharray:none;stroke-opacity:1;paint-order:fill markers stroke"
       id="path1183"
       sodipodi:sides="5"
       sodipodi:cx="35.640389"
       sodipodi:cy="98.689269"
       sodipodi:r1="6.4735112"
       sodipodi:r2="5.2371802"
       sodipodi:arg1="-0.91862492"
       sodipodi:arg2="-0.29030638"
       inkscape:flatsided="true"
       inkscape:rounded="0"
       inkscape:randomized="0"
       d="m 39.56925,93.544332 2.178351,7.291638 -6.26161,4.32497 -6.048238,-4.61865 2.523593,-7.179463 z"
       inkscape:transform-center-x="0.047711751"
       inkscape:transform-center-y="0.572612" />
    <path
       style="fill:#2b0000;fill-opacity:1;stroke:none;stroke-width:0.0755954;stroke-linecap:butt;stroke-linejoin:miter;stroke-miterlimit:4;stroke-dasharray:none;stroke-opacity:1"
       d="m 34.590115,93.888322 0.08751,0.175011 0.512533,-0.262517 0.237515,0.05001 -0.16251,1.000065 -0.375025,0.112508 0.887557,0.100006 -0.300019,-0.16251 0.13751,-1.212579 -0.425028,-0.0375 z"
       id="path1187" />
    <path
       style="fill:#2b0000;fill-opacity:1;stroke:none;stroke-width:0.20465px;stroke-linecap:butt;stroke-linejoin:miter;stroke-opacity:1"
       d="m 35.909332,93.805522 0.117575,0.09949 0.397952,-0.217064 0.506483,0.07236 -0.05427,0.615014 -0.786857,0.696414 1.456139,0.05427 -0.985832,-0.189932 0.533615,-0.497439 -0.03618,-0.795903 -0.605971,-0.06331 z"
       id="path1189" />
    <g
       id="tapis">
      <path
         style="opacity:0.999;fill:#de8787;stroke:url(#radialGradient1100);stroke-width:0.042323;stroke-linecap:round;stroke-miterlimit:4;stroke-dasharray:none;paint-order:fill markers stroke"
         d="m 111.29845,212.30248 c -10.84614,-0.83899 -19.739637,-1.5513 -19.763319,-1.58291 -0.08066,-0.10762 -1.700607,-4.95599 -1.696299,-5.07689 0.0024,-0.0663 1.345824,-1.19138 2.985471,-2.50041 l 2.981177,-2.38002 9.6964,-0.11755 c 10.53115,-0.1276 9.38427,-0.15589 25.56787,0.6306 l 9.54329,0.46379 6.31545,3.77198 c 3.47349,2.07461 6.25228,3.78512 6.17507,3.80116 -0.0771,0.016 -4.9293,1.04555 -10.78244,2.28783 -5.85314,1.24228 -10.79065,2.25175 -10.97224,2.24326 -0.18159,-0.008 -9.20429,-0.70192 -20.05043,-1.54091 z"
         id="path1090" />
      <path
         style="opacity:0.999;fill:#c83737;stroke:url(#radialGradient1102);stroke-width:0.0353552;stroke-linecap:round;paint-order:fill markers stroke"
         d="m 96.683259,214.58284 c -18.959097,-1.18136 -34.555277,-2.16454 -34.658176,-2.18485 -0.149375,-0.0295 -0.495599,-0.78328 -1.71763,-3.73973 -0.841795,-2.03655 -1.515316,-3.71465 -1.496708,-3.72911 0.0186,-0.0145 2.398541,-1.56633 5.288738,-3.4486 l 5.254905,-3.42232 8.963835,-0.10202 c 4.930108,-0.0561 12.583996,-0.14468 17.008644,-0.19683 l 8.044813,-0.0948 15.29449,0.61055 c 8.41198,0.33581 18.44204,0.73811 22.28902,0.894 l 6.99452,0.28345 10.98804,5.35243 c 6.04342,2.94384 10.98864,5.37523 10.98938,5.4031 0.001,0.0279 -8.44922,1.51287 -18.77768,3.3 -13.13807,2.27328 -18.96168,3.24533 -19.38707,3.23599 -0.33442,-0.007 -16.12002,-0.9799 -35.079121,-2.16126 z m 43.529041,-4.42901 c 5.5092,-0.9538 10.03614,-1.75361 10.05988,-1.77734 0.0237,-0.0237 0.0256,-0.057 0.004,-0.0738 -0.0214,-0.0169 -2.73305,-1.34206 -6.02581,-2.94489 l -5.98684,-2.91424 -11.73981,-0.46792 -11.73981,-0.46791 -8.87889,0.10481 -8.878893,0.1048 -2.799652,1.8268 c -1.539809,1.00474 -2.816452,1.87244 -2.836989,1.92823 -0.02053,0.0558 0.338127,1.00647 0.797028,2.11263 l 0.834366,2.0112 0.451318,0.0309 c 3.720457,0.25468 35.532422,2.24008 36.033272,2.24886 0.514,0.009 3.24395,-0.4301 10.70664,-1.7221 z"
         id="path1092" />
    </g>
    <path
       style="fill:#2b0000;fill-opacity:1;stroke:none;stroke-width:0.0755954;stroke-linecap:butt;stroke-linejoin:miter;stroke-miterlimit:4;stroke-dasharray:none;stroke-opacity:1"
       d="m 37.605428,95.756863 0.08751,0.175011 0.512533,-0.262517 0.237515,0.05001 -0.16251,1.000065 -0.375025,0.112508 0.887557,0.100006 -0.300019,-0.16251 0.13751,-1.212579 -0.425028,-0.0375 z"
       id="path1187-2" />
    <path
       style="fill:#2b0000;fill-opacity:1;stroke:none;stroke-width:0.20465px;stroke-linecap:butt;stroke-linejoin:miter;stroke-opacity:1"
       d="m 38.802844,97.629761 0.117575,0.09949 0.397952,-0.217064 0.506483,0.07236 -0.05427,0.615014 -0.786857,0.696414 1.456139,0.05427 -0.985832,-0.189932 0.533615,-0.497439 -0.03618,-0.795903 -0.605971,-0.06331 z"
       id="path1189-2" />
    <path
       style="fill:#080000;fill-opacity:1;stroke:none;stroke-width:0.155137px;stroke-linecap:butt;stroke-linejoin:miter;stroke-opacity:1"
       d="m 39.191406,99.975817 0.70355,-0.32712 0.57652,0.0481 -0.03909,0.577273 -0.361547,0.1347 0.410404,0.39447 -0.400632,0.43295 -0.684005,-0.14432 0.664464,0.0385 0.273603,-0.30788 -0.410405,-0.32712 0.01465,-0.1347 0.400632,-0.14432 0.0342,-0.442571 -0.44949,-0.05292 z"
       id="path1150" />
    <path
       style="fill:#000000;fill-opacity:1;stroke:none;stroke-width:0.148606px;stroke-linecap:butt;stroke-linejoin:miter;stroke-opacity:1"
       d="m 35.660274,98.631966 0.194347,-0.124285 0.291518,0.07102 0.330389,0.204182 0.01943,0.381731 -0.281802,0.186427 -0.408127,-0.0799 -0.25265,-0.319589 z"
       id="path1156" />
    <g
       id="g1170"
       transform="translate(-0.09095052,0.19016927)">
      <g
         id="g1165">
        <path
           style="fill:#050000;fill-opacity:1;stroke:none;stroke-width:0.132543px;stroke-linecap:butt;stroke-linejoin:miter;stroke-opacity:1"
           d="m 38.721224,101.02949 -0.251984,0.16626 -0.227647,0.66083 0.403282,0.0974 -0.06682,0.6192 0.10729,-0.0947 0.03845,-0.52521 0.533763,-0.0292 -0.562346,-0.0717 z"
           id="path1158"
           sodipodi:nodetypes="cccccccccc" />
      </g>
      <path
         style="fill:#c8beb7;fill-opacity:1;stroke:none;stroke-width:0.264583px;stroke-linecap:butt;stroke-linejoin:miter;stroke-opacity:1"
         d="m 38.601655,101.16235 -0.137395,0.19594 -0.114004,0.43264 0.217782,0.0147 z"
         id="path1162"
         sodipodi:nodetypes="ccccc" />
    </g>
  </g>
</svg>
